<?xml version="1.0" encoding="utf-8"?>
<!-- Generator: Adobe Illustrator 25.4.2, SVG Export Plug-In . SVG Version: 6.00 Build 0)  -->
<svg version="1.1" id="Layer_1" xmlns="http://www.w3.org/2000/svg" xmlns:xlink="http://www.w3.org/1999/xlink" x="0px" y="0px"
	 viewBox="0 0 832 646" style="enable-background:new 0 0 832 646;" xml:space="preserve">
<style type="text/css">
	.st0{fill:#E6E6E6;}
	.st1{fill:#CBCBCB;}
	.st2{fill:#E5E5E5;}
	.st3{opacity:0.2;enable-background:new    ;}
	.st4{fill:#3F3D56;}
	.st5{fill:#FF6583;}
	.st6{fill:#6C63FF;}
	.st7{fill:#F1F1F1;}
	.st8{fill:#FFB7B7;}
	.st9{fill:#2F2E41;}
	.st10{font-family:'ArialMT';}
	.st11{font-size:29px;}
</style>
<path id="efdf5e1f-6b90-40c1-9274-afa2b16f39be-775" class="st0" d="M526.4,644.4c0,0-12.8-31.4,25.5-54.9L526.4,644.4z"/>
<path id="af7fe47f-56e6-4bb6-aa0f-d6efaf86a160-776" class="st0" d="M510.7,643.8c0,0-3.9-22.4-34-22.2L510.7,643.8z"/>
<path id="a08d42bc-6ae2-46d7-9736-aba59e52cc48-777" class="st0" d="M798.3,644.4c0,0-16.8-41.5,33.7-72.6L798.3,644.4z"/>
<path id="bafd7749-4c33-42a1-9524-e744b9f16454-778" class="st0" d="M777.6,643.6c0,0-5.1-29.6-44.9-29.3"/>
<polygon class="st1" points="483.2,179.6 466.6,170.7 467.8,170.1 484.5,178.9 "/>
<polygon class="st1" points="468.7,179.6 467.5,178.9 484.1,170.1 485.3,170.7 "/>
<rect x="345.9" y="110.4" transform="matrix(0.456 -0.89 0.89 0.456 88.0392 370.1394)" class="st1" width="1.8" height="5.3"/>
<path class="st1" d="M442.3,163l-9.4-4.8l0.8-1.6l9.4,4.8L442.3,163z M423.6,153.4l-9.4-4.8l0.8-1.6l9.4,4.8L423.6,153.4z
	 M404.9,143.8l-9.4-4.8l0.8-1.6l9.4,4.8L404.9,143.8z M386.2,134.2l-9.4-4.8l0.8-1.6l9.4,4.8L386.2,134.2z M367.5,124.6l-9.4-4.8
	l0.8-1.6l9.4,4.8L367.5,124.6z"/>
<rect x="453.5" y="165.6" transform="matrix(0.456 -0.89 0.89 0.456 97.4999 495.9048)" class="st1" width="1.8" height="5.3"/>
<path class="st2" d="M97.6,228.9c0,0.5,0,1.1-0.1,1.6c-0.2,3.1-1,6.2-2.3,9c0,0,0,0,0,0.1c-0.1,0.1-0.1,0.3-0.2,0.4
	c-0.4,0.8-0.8,1.6-1.3,2.3c-4.5,7-12.1,11.3-20.4,11.5l0.2,14.2l3.2-1.7l0.6,1.1l-3.8,2l0.5,26.3l0,0.4l-2.5,0.6l0-0.4l0.8-42.4
	c-6.6-0.1-13-2.9-17.6-7.7c-0.2-0.2-0.3-0.3-0.5-0.5l0,0c-1.9-2.1-3.4-4.4-4.5-7c0,0,0.1,0.1,0.1,0.1c-5.2-12.2,0-26.2,11.8-32.1
	c0.1,0,0.2-0.1,0.3-0.1c11.7-5.6,25.7-1.4,32.3,9.8c0.2,0.3,0.3,0.5,0.4,0.8C96.5,220.7,97.6,224.8,97.6,228.9z"/>
<circle class="st2" cx="94.2" cy="207" r="32.7"/>
<path class="st3" d="M70.1,185.1c-7.1,16.6,0.6,35.8,17.2,42.9c12.9,5.5,27.9,2.2,37.2-8.3c-7.1,16.6-26.3,24.3-42.9,17.2
	C65,229.8,57.3,210.6,64.4,194C65.8,190.8,67.7,187.8,70.1,185.1z"/>
<polygon class="st4" points="96,298 92.6,297 92.7,296.7 93.7,242.3 93.7,239.6 93.7,239.6 93.9,230.1 94.1,216.3 94.1,216.3 
	94.3,207 94.4,207 94.6,217.1 94.8,230.2 95,239.6 95,239.6 95,240 95,240 95.3,258.2 95.3,260 96,297.6 "/>
<rect x="94.1" y="257.3" transform="matrix(0.8849 -0.4659 0.4659 0.8849 -109.0619 74.9923)" class="st4" width="6.1" height="1.6"/>
<path d="M517.8,101.2c-41.2-2.4-82.6-1.8-123.8,1.9c-19.8,1.8-40,3.7-59.4,8.1c-15.7,3.5-33.9,9.4-43.6,23.1
	c-4.1,5.6-5.4,12.8-3.5,19.5c2.3,7.8,8.1,14.3,14.3,19.4c14.2,11.7,31.8,18.6,47.6,27.9c28.7,17,55,40,71.9,69.1
	c7.4,12.8,14.5,29.9,6.2,44c-8.1,13.8-26.2,18.6-40.9,20.9c-18.5,2.8-37.5,2.1-56.1,0.5c-20.4-1.9-40.6-4.9-60.7-8.9
	c-39.3-7.5-78.2-17.1-118-21.5c-20-2.3-40.1-2.9-60.2-1.7c-18.1,1.2-36.4,4.1-53.4,10.6c-13.1,5-27.1,12.7-34.2,25.4
	c-6.8,12.2-4.2,26.4,3.3,37.7c9,13.6,22.9,22.9,37.4,29.7c16.5,7.8,34.2,12.8,51.9,17.1c9,2.2,18,4.1,27,6.1
	c1.9,0.4,2.7-2.5,0.8-2.9c-18.2-3.9-36.4-7.9-54.2-13.6c-16.4-5.3-33.2-12-46.7-23.1c-10.9-8.9-21.2-22-20.6-36.9
	c0.6-15,13.2-25.4,25.5-31.9c15.4-8,32.9-12,50-14c19.6-2.2,39.4-2.5,59.1-0.8c39.7,3,78.6,12.1,117.5,20
	c37.8,7.7,76.9,14.8,115.6,12.8c15.4-0.8,31.8-3,45.4-10.7c6.2-3.6,11.8-8.6,15-15.1c2.8-6.2,3.7-13.1,2.6-19.8
	c-2.2-14.8-11-28.5-19.7-40.2c-9.6-12.8-20.7-24.3-33.1-34.3c-13.6-11-28.3-20.5-43.8-28.6c-8.2-4.3-16.6-8.5-24.4-13.5
	c-7.5-4.8-15-10.6-19.6-18.4c-4-6.8-4.7-14.5-0.6-21.3c4.2-6.9,11.4-11.8,18.5-15.3c17.1-8.5,37.1-10.8,55.8-13.1
	c40.3-5,80.9-7,121.5-6.1c9.9,0.2,19.7,0.6,29.6,1.2C519.7,104.3,519.7,101.3,517.8,101.2L517.8,101.2z"/>
<path class="st4" d="M491.6,5.1l6.2-5c-4.8-0.5-6.8,2.1-7.6,4.2c-3.8-1.6-7.9,0.5-7.9,0.5l12.5,4.5C494.1,7.6,493,6.1,491.6,5.1z"/>
<path class="st4" d="M461.4,20.8l6.2-5c-4.8-0.5-6.8,2.1-7.6,4.2c-3.8-1.6-7.9,0.5-7.9,0.5l12.5,4.5
	C463.9,23.4,462.8,21.9,461.4,20.8z"/>
<path class="st4" d="M491.6,45.8l6.2-5c-4.8-0.5-6.8,2.1-7.6,4.2c-3.8-1.6-7.9,0.5-7.9,0.5l12.5,4.5C494.1,48.3,493,46.9,491.6,45.8
	z"/>
<g id="e2dfab6d-8627-4cc0-b13e-69de57259a01">
	<circle id="bedd3b2f-f695-46eb-9812-80ad4d1341b6" class="st5" cx="398.2" cy="34.4" r="18.8"/>
	<path id="efdddea5-7f44-48b8-bec9-83339a7f085f-779" class="st6" d="M457.1,92.2H365c-0.1,0-0.2,0-0.3,0l43.5-75.4
		c0.8-1.5,2.7-2,4.2-1.2c0.5,0.3,0.9,0.7,1.2,1.2l29.2,50.6l1.4,2.4L457.1,92.2z"/>
	<path id="f8d22fd6-a75d-4da9-80c1-fba8d7f50740-780" class="st6" d="M508.3,92.2h-79.6l15.4-22.4l1.1-1.6L465.4,39
		c1.4-1.8,4-2,5.7-0.7c0.1,0.1,0.2,0.2,0.3,0.3c0.1,0.1,0.2,0.2,0.3,0.4L508.3,92.2z"/>
</g>
<path class="st7" d="M377,265.2c8.7,4.4,14,10.1,14,16.4c0,13.6-24.6,24.6-55,24.6c-13.2,0-25.3-2.1-34.8-5.6
	c10.1,5,24.7,8.2,41,8.2c30.4,0,55-11,55-24.6C397.2,276.6,389.3,269.8,377,265.2z"/>
<path class="st7" d="M396.4,274.6c9.8,4.9,15.8,11.4,15.8,18.6c0,15.4-27.8,27.8-62.1,27.8c-14.9,0-28.6-2.4-39.3-6.3
	c11.4,5.7,27.9,9.3,46.2,9.3c34.3,0,62.1-12.5,62.1-27.8C419.2,287.4,410.3,279.7,396.4,274.6z"/>
<path class="st7" d="M369.5,269.4c6.1,3.1,9.9,7.1,9.9,11.6c0,9.6-17.4,17.4-38.8,17.4c-8.3,0.1-16.6-1.2-24.5-3.9
	c7.1,3.5,17.4,5.8,28.9,5.8c21.4,0,38.8-7.8,38.8-17.4C383.8,277.4,378.2,272.5,369.5,269.4z"/>
<path class="st4" d="M283.2,267.6c0,0,1.4,19.7,40.1,19.7s50.3-19.7,50.3-19.7H283.2z"/>
<path class="st4" d="M338.1,215.8c-5.6-4.2-12.6-6.2-19.6-5.4c14.6,3.5,23.7,18.3,20.1,32.9c-2.7,11.1-12,19.4-23.4,20.7
	c14.6,3.5,29.4-5.5,32.9-20.1C350.7,233.4,346.8,222.3,338.1,215.8L338.1,215.8z"/>
<rect x="322.8" y="206.9" class="st4" width="2.6" height="62.9"/>
<path class="st1" d="M499,160.2L499,160.2l0-1.6l8.3-12l-8.3,10.9l0,0.3l-0.3-12.3l7.1-12.5l-7.2,10.3l0.1-25.4l0-0.1l0,0.1l-0.5,20
	l-6.5-8.1l6.5,9.9l-0.1,11l-6-10.7l6,12.3l-0.1,6.1l-0.2,16.9l0,1.3c0.6,0,1.1,0,1.6,0l-0.4-16.2L499,160.2z"/>
<path class="st1" d="M459.4,165.4L459.4,165.4l0-1.6l8.3-12l-8.3,10.9l0,0.3l-0.3-12.3l7.1-12.5l-7.2,10.3l0.1-25.4l0-0.1l0,0.1
	l-0.5,20l-6.5-8.1l6.5,9.9l-0.1,11l-6-10.7l6,12.3l-0.1,6.1l-0.2,16.9l0,1.3c0.6,0,1.1,0,1.6,0l-0.4-16.2L459.4,165.4z"/>
<path class="st1" d="M478.7,148.7L478.7,148.7l0-1.6l8.3-12l-8.3,10.9l0,0.3l-0.3-12.3l7.1-12.5l-7.2,10.3l0.1-25.4l0-0.1l0,0.1
	l-0.5,20l-6.5-8.1l6.5,9.9l-0.1,11l-6-10.7l6,12.3l-0.1,6.1l-0.2,16.9l0,1.3c0.6,0,1.1,0,1.6,0l-0.4-16.2L478.7,148.7z"/>
<circle class="st6" cx="151.6" cy="430.4" r="10.6"/>
<polygon class="st8" points="715.4,625.4 705.6,629.1 687,593.1 701.4,587.7 "/>
<path class="st9" d="M721.4,634l-31.5,11.7l-0.1-0.4c-2.5-6.8,0.9-14.3,7.7-16.8l0,0l19.3-7.2L721.4,634z"/>
<polygon class="st8" points="619.2,635.6 608.7,635.6 603.8,595.3 619.2,595.3 "/>
<path class="st9" d="M621,645.7l-33.6,0v-0.4c0-7.2,5.9-13.1,13.1-13.1h0l20.5,0L621,645.7z"/>
<path class="st9" d="M666.9,356.5l-3.4-6.8l-28.9,14.5l0.9,6l-5.5,7.2c0,0-9.4,5.1-7.7,22.1l1.7,16.2l2.1,20.8L611.2,488l-7.7,68.1
	l-5.5,54.9l26.8-1.3l24.7-89.3l43.4,96.2l29.8-7.7l-40.8-95.3l-5.1-40c0,0,3.4-21.3-12.8-35.7l2.6-7.7v-9.4l8.5-45L666.9,356.5z"/>
<rect x="624.4" y="486.6" transform="matrix(0.2715 -0.9624 0.9624 0.2715 11.1617 988.9873)" class="st3" width="69" height="1"/>
<rect x="624.4" y="436.5" class="st4" width="41.7" height="4.3"/>
<ellipse class="st4" cx="624.4" cy="439" rx="1.7" ry="4.3"/>
<circle class="st8" cx="643.2" cy="325.6" r="22.7"/>
<circle class="st9" cx="677.9" cy="297.4" r="20.1"/>
<path class="st9" d="M703.4,295.3c3.2,10.6-2.9,21.8-13.5,25c-10.6,3.2-21.8-2.9-25-13.5c-0.3-1.1-0.5-2.1-0.7-3.2
	c3.2,10.6,14.3,16.7,25,13.5C698.6,314.2,704.6,305,703.4,295.3z"/>
<path class="st9" d="M624.1,319.3c-1.5,13,7.9,24.8,20.9,26.2c13,1.5,24.8-7.9,26.2-20.9c1.5-13-7.9-24.8-20.9-26.2
	c-4.1-0.5-8.3,0.2-12.1,1.8c-4-3.2-8.9-2.2-12.9,1.2c-4.5,3.8-5.9,6.4-9.4,12.7C619.5,314.6,620.6,318.8,624.1,319.3z"/>
<path class="st6" d="M707.5,387.5c-0.3,6.7-0.8,20-0.8,20.6c0,0.7-10,21.5-14.4,30.4v0c-0.3,0.6-0.6,1.2-0.8,1.7
	c-0.7,1.4-2.1,2.3-3.7,2.3l-18.9-0.3c-2.2,0-3.9-1.8-4-3.9l-2.1-83.3c0-1.1,0.9-2.1,2-2.1c0,0,0,0,0.1,0h24.4c2.1,0,4,1.2,4.9,3.1
	l11.7,24.2C707,382.5,707.6,385,707.5,387.5L707.5,387.5z"/>
<path class="st6" d="M664.6,432.6c-4.9-2.9-9.2-6.6-12.9-10.9c-8.6-9.7-13.9-21.9-15-34.9c-1-11.1,1.2-19.3,6.5-24.5
	c6.7-6.6,15.9-5.6,16.3-5.6l0.4,0l6.2,5.3l-1.8,2.1l-5.6-4.7c-1.7-0.1-8.6-0.1-13.7,4.9c-4.7,4.6-6.6,12.1-5.7,22.3
	c1,12.3,6,24,14.2,33.2c3.5,4.1,7.7,7.6,12.3,10.4L664.6,432.6z"/>
<rect x="666.5" y="404.3" transform="matrix(0.9796 -0.2012 0.2012 0.9796 -67.4551 145.756)" class="st4" width="33.8" height="0.9"/>
<rect x="678.2" y="352.8" transform="matrix(0.9992 -4.078488e-02 4.078488e-02 0.9992 -14.8996 27.993)" class="st4" width="0.9" height="52.7"/>
<path class="st4" d="M707.5,387.5c-0.3,6.7-0.8,20-0.8,20.6c0,0.7-10,21.5-14.4,30.4l8.1-46.9c0.6-3.7,3.2-6.7,6.7-8
	C707.4,384.9,707.5,386.2,707.5,387.5z"/>
<path class="st8" d="M657.8,485.8c2.7-3.5,2.1-8.5-1.4-11.2c-0.4-0.3-0.8-0.5-1.2-0.8l1.6-18.2l-10.8-3.7l-2,25.7
	c-1.8,4.1,0,8.8,4.1,10.6C651.6,489.8,655.6,488.7,657.8,485.8L657.8,485.8z"/>
<path class="st1" d="M659.2,468.2l-19.1-0.7l0.8-92.2c0-5.4,3.4-10.1,8.4-11.8c2.3-0.8,4.8-0.8,7.1,0c5.4,1.8,8.9,7.1,8.4,12.7
	L659.2,468.2z"/>
<path class="st1" d="M827,646H446c-0.6,0-1-0.4-1-1s0.4-1,1-1h381c0.6,0,1,0.4,1,1S827.6,646,827,646z"/>
<text transform="matrix(1 0 0 1 36.5366 579)" class="st10 st11">Going on an Adventure</text>
</svg>
