<?xml version="1.0" encoding="utf-8"?>
<!-- Generator: Adobe Illustrator 25.4.2, SVG Export Plug-In . SVG Version: 6.00 Build 0)  -->
<svg version="1.1" id="Layer_1" xmlns="http://www.w3.org/2000/svg" xmlns:xlink="http://www.w3.org/1999/xlink" x="0px" y="0px"
	 viewBox="0 0 888.5 696.6" style="enable-background:new 0 0 888.5 696.6;" xml:space="preserve">
<style type="text/css">
	.st0{fill:#3F3D56;}
	.st1{fill:#6C63FF;}
	.st2{fill:#2F2E41;}
	.st3{fill:#FF6584;}
	.st4{fill:#FFB8B8;}
	.st5{fill:#E6E6E6;}
	.st6{fill:#F2F2F2;}
	.st7{fill:#FFB6B6;}
	.st8{fill:#CCCCCC;}
	.st9{font-family:'ArialMT';}
	.st10{font-size:29px;}
</style>
<path class="st0" d="M381,281.4c13.5-13.2,18.2-34.9,10.6-48.6c-7.7-13.6-24.9-14-38.4-0.8s-32.5,48.9-24.8,62.5
	C336,308.2,367.5,294.6,381,281.4z M334.4,288.6c-2.9-1.4-3.7-5.7-1.8-9.7s5.8-6.1,8.7-4.7s3.7,5.7,1.8,9.7S337.2,290,334.4,288.6
	L334.4,288.6z"/>
<path class="st1" d="M364.3,271.4c-1.3-1.2-2.6-2.4-3.9-3.6c-1.8-1.4-3.3-3.2-4.3-5.3c-1.1-2.8-1.4-6-0.8-9
	c0.7-4.4,2.7-8.4,5.8-11.5l-0.2,3c1.6-1.8,3.4-3.4,5.5-4.7c1.9-1,4.1-0.9,4.9,0.8c1,2,0,5.7,1.3,7.3c2.2,2.8,8.1-3.3,10.6-0.8
	c1.4,1.5,0.8,4.9,0,7.8c-0.8,3.6-2,7.1-3.7,10.4c-3,5.4-8.5,9-12.2,7.5C366.2,273,365.2,272.3,364.3,271.4z"/>
<path class="st2" d="M352.8,272.1c-0.7-2.3,0.7-5.3,2.1-7.9l0.7-0.7c1.4-0.7,2.9-1.1,4.4-1.3c1.5-0.1,2.8,0.8,3.3,2.2
	c0.4,1.4,0.1,3.3,1,4.1c1.8,1.5,5.5-3.2,7.2-1.6c1,0.9,0.3,3.3-1,4.5c-1.2,1-2.7,1.6-4.2,1.7c-2.2,0.4-4.5,0.7-6.7,1.1
	c-1.3,0.3-2.7,0.4-4,0.2C354.3,274.4,353.2,273.4,352.8,272.1z"/>
<path class="st3" d="M345.4,273.8c0.5-3.4,3.1-9,5.4-13.7l0.9-1.4c1.3-1.6,2.8-2.9,4.5-4.1c1.3-0.7,2.2-0.2,1.8,2.1
	c-0.3,2-1.5,5.3-1,6.2c0.9,1.6,6.3-7.8,7.1-5.9c0.4,1.1-1.3,5.3-3,7.8c-1.2,1.8-2.7,3.4-4.5,4.7c-2.1,1.6-4.3,3.3-6.4,4.9
	c-1,0.9-2.3,1.7-3.6,2.2C345.7,276.7,345.1,275.9,345.4,273.8z"/>
<path class="st4" d="M346.1,286.3c-1.2-5.8-6.9-9.6-12.7-8.4c-0.6,0.1-1.2,0.3-1.8,0.5l-25-28.9l-5.4,19.1l24.6,24.5
	c2.6,5.4,9,7.7,14.4,5.1C344.7,296.2,347.2,291.2,346.1,286.3z"/>
<path class="st0" d="M263.1,176.2l-6.6,11.2c0,0,17.5,8.7,17.8,15.5s1.6,5.1,4.2,7s5.7,6.7,5.8,12.1s41.5,46.8,41.5,46.8l-11.3,15.6
	c-3.7-3.4-7.8-6.4-12.1-8.8c-6.7-3.5-25.3-10-26.6-13.7s-6.8-6.2-12-10s6-6.9-2.7-13.2s-55.8-55.6-64.2-60.3s-8.5-19.3-8.5-19.3
	l6.3-8.7L263.1,176.2z"/>
<path class="st5" d="M640.2,469.6v-5.5c0.1-1.6,0.1-3.3,0-4.9V10.5c0-5.8-4.7-10.5-10.5-10.5s-10.5,4.7-10.5,10.5v448.7
	c-0.1,1.6-0.1,3.3,0,4.9v5.5L512.9,687.1c10.5,10.5,27.6,10.5,38.2,0c0,0,0,0,0,0l68.1-172.8v170.2c0,5.8,4.7,10.5,10.5,10.5
	c5.8,0,10.5-4.7,10.5-10.5l0,0V514.3l68.1,172.8c10.5,10.5,27.6,10.5,38.2,0c0,0,0,0,0,0L640.2,469.6z"/>
<path class="st5" d="M116.1,630.9c-11.4-11.3-21.2-24.2-28.9-38.3c-7.7-14-13.4-29-16.9-44.7c-3.6-15.8-4.7-32.1-3.5-48.3
	c2.6-33,14.8-64.5,35-90.6c1.2-1.6,2.5-3.2,3.8-4.7c1.4-1.7,3.9,0.8,2.5,2.5c-20.7,24.8-33.7,55.2-37.3,87.3
	c-5.3,49.7,12.3,99.1,47.8,134.3C120.2,630,117.7,632.5,116.1,630.9L116.1,630.9z"/>
<path class="st5" d="M100.4,412.1c1.4-0.5,2.8-1.1,4.1-1.8c0.1,0.1,0.1,0.2,0.2,0.3L100.4,412.1z"/>
<path class="st5" d="M127.4,381.3c-0.6,3.2-1.6,6.3-3.1,9.2c-4,8.1-10.5,14.8-18.4,19.1c-0.4,0.2-0.9,0.5-1.3,0.7
	c-0.5-0.9-1.1-1.7-1.6-2.6c-3.6-5.7-6.7-11.7-8.2-18.2c-1.7-7.6-0.8-16.2,4.1-22.3c4.9-6.1,14.2-8.9,21-4.9c2,1.2,3.6,2.8,4.8,4.7
	c-0.7,0.8-1.3,1.7-2,2.5c-0.1,0.1-0.1,0.2-0.2,0.2c-0.6,0.7-1.2,1.5-1.8,2.2c-2.4,3-4.9,6-7.3,9c3.4,0.6,7,0.9,10.5,0.7
	c0.3,0,0.6,0,0.9,0C125.6,381.5,126.5,381.4,127.4,381.3z"/>
<path class="st5" d="M77.9,441.4L77,453.6l-0.2,3.3c-0.3-0.1-0.5-0.3-0.8-0.4c-18.4-9.2-32-25.8-37.3-45.7
	c-0.9-3.4-1.5-6.9-1.8-10.4c4.7-0.7,9.5-1.5,14.3-2.2c-3.8-5-8.7-9.2-14.2-12.3c1.3-12.2,5.7-23.9,12.8-33.9
	c1.2,20.5,22.7,33.5,30.5,52.5C85.1,416.5,84.3,430.1,77.9,441.4z"/>
<path class="st5" d="M73.9,548.7c-1.1,0.1-2.3,0.1-3.4,0.1c-19.7-0.1-38.5-8.4-51.9-22.8c-5.4-5.9-9.7-12.7-12.8-20
	c0.1,0,0.2,0,0.3,0c4.7-0.7,9.5-1.5,14.3-2.2c-5-6.6-11.7-11.7-19.4-14.8c-1-6.6-1.1-13.4-0.2-20c10.7,17.5,35.8,18.9,51.6,31.9
	c7.6,6.3,12.7,15,14.6,24.7c0.5,2.4,0.7,4.8,0.7,7.2c0,0.6,0,1.2,0,1.7l0.4,0.8L73.9,548.7z"/>
<path class="st5" d="M121,569c-3,3.7-6.1,7.5-9.1,11.2c3.7,0.7,7.5,0.9,11.3,0.7c-3.4,12-9.8,23-18.7,31.8c-0.8,0.8-1.7,1.6-2.6,2.4
	c-0.2,0.2-0.4,0.3-0.5,0.5l-0.8-2.2l0,0l-4.5-12.4c-5.7-5.7-9.6-12.9-11.4-20.8v0c-1.1-4.6-1.3-9.4-0.7-14.1
	c2.5-20.4,19.7-38.7,15.4-58.7c9.4,7.6,16.7,17.6,21.2,28.8c-2.4,3-4.9,6-7.3,9c3.4,0.6,7,0.9,10.5,0.7c1.2,5,1.9,10,2,15.2
	c0,0.7,0,1.5,0,2.2c-1.5,1.9-3.1,3.8-4.6,5.7C121.1,568.8,121.1,568.9,121,569z"/>
<path class="st5" d="M716.3,670.1c-1.8-16-1.3-32.1,1.5-48c2.8-15.8,7.7-31,14.8-45.4c7.2-14.6,16.4-28,27.5-39.8
	c22.7-24.1,51.9-41,84.1-48.6c2-0.5,3.9-0.9,5.9-1.3c2.2-0.4,2.6,3,0.4,3.5c-31.7,6.4-60.8,21.9-83.8,44.6
	c-35.3,35.4-52.6,85-46.9,134.6C720,671.9,716.6,672.3,716.3,670.1L716.3,670.1z"/>
<path class="st5" d="M841.2,489.7c1.4,0.5,2.9,0.9,4.4,1.2c0,0.1,0,0.2,0,0.4L841.2,489.7z"/>
<path class="st5" d="M881.5,482.6c-2.5,2.1-5.2,3.9-8.2,5.3c-8.2,3.8-17.4,4.9-26.3,3.3c-0.5-0.1-1-0.2-1.5-0.3c0.1-1,0.2-2,0.3-3
	c0.8-6.7,2.1-13.3,5.1-19.3c3.5-7,9.6-13.1,17.2-14.8c7.6-1.7,16.6,2,19.4,9.3c0.8,2.1,1.1,4.4,0.8,6.7c-1,0.2-2.1,0.4-3.1,0.7
	c-0.1,0-0.2,0-0.3,0.1c-0.9,0.2-1.8,0.4-2.8,0.6c-3.8,0.8-7.6,1.6-11.4,2.4c2.3,2.7,4.9,5,7.7,7.1c0.2,0.2,0.5,0.3,0.7,0.5
	C880,481.6,880.8,482.1,881.5,482.6z"/>
<path class="st5" d="M805.3,498.4l-8.4,8.9l-2.3,2.4c-0.1-0.3-0.3-0.5-0.4-0.8c-8.6-18.7-8.8-40.2-0.4-59c1.5-3.2,3.2-6.3,5.1-9.2
	c4.2,2.4,8.3,4.8,12.5,7.2c0.1-6.3-1-12.6-3.3-18.4c8.6-8.7,19.4-15.1,31.3-18.4c-11.9,16.7-3.3,40.3-9.1,60
	C826.5,483.5,817.4,493.6,805.3,498.4z"/>
<path class="st5" d="M734.9,579.5c-0.9-0.7-1.8-1.4-2.7-2.1c-15.3-12.4-24.8-30.6-26.2-50.3c-0.5-8,0.4-16,2.6-23.6
	c0.1,0.1,0.2,0.1,0.3,0.1c4.2,2.4,8.3,4.8,12.5,7.2c0.2-8.3-1.8-16.5-5.9-23.7c3.3-5.8,7.5-11.1,12.4-15.7
	c-2.6,20.3,16.1,37.2,20.3,57.2c1.9,9.6,0.5,19.7-4.1,28.4c-1.1,2.2-2.5,4.2-4,6.1c-0.4,0.5-0.7,0.9-1.1,1.3l-0.2,0.8L734.9,579.5z"
	/>
<path class="st5" d="M758.9,624.8c-4.7,1-9.4,2-14.1,3c2.5,2.9,5.3,5.4,8.4,7.6c-10.2,7.3-22.1,11.8-34.5,13
	c-1.2,0.1-2.3,0.2-3.5,0.2c-0.2,0-0.5,0-0.7,0l0.8-2.2l0,0l4.3-12.5c-0.8-8,0.6-16.1,4.2-23.3l0,0c2.1-4.3,4.9-8.1,8.3-11.4
	c14.7-14.3,39.6-17.8,48.8-36.1c2.6,11.9,2,24.2-1.5,35.8c-3.8,0.8-7.6,1.6-11.4,2.4c2.3,2.7,4.9,5,7.7,7.1c-2.2,4.6-4.8,9-7.9,13.1
	c-0.4,0.6-0.9,1.1-1.4,1.7c-2.4,0.5-4.8,1-7.2,1.5C759.1,624.8,759,624.8,758.9,624.8z"/>
<path class="st6" d="M824.2,395.5H435.3c-9.4,0-17-7.6-17.1-17.1V106.6c0-9.4,7.6-17,17.1-17.1h388.9c9.4,0,17,7.6,17.1,17.1v271.9
	C841.2,387.9,833.6,395.5,824.2,395.5z"/>
<path class="st5" d="M687.2,106.5h-115c-15.2,0-27.5-12.3-27.5-27.5v-0.5h170V79C714.7,94.2,702.4,106.5,687.2,106.5z"/>
<path class="st5" d="M687.7,412.5h-115c-15.2,0-27.5-12.3-27.5-27.5v-0.5h170v0.5C715.2,400.2,702.9,412.5,687.7,412.5z"/>
<path class="st1" d="M659.7,343c0,16.6-12.4-2-29-2s-30-13.4-30-30s13.4-30,30-30S659.7,326.4,659.7,343z"/>
<path class="st1" d="M544.7,193c0,16.6-13.4,30-30,30s-25,33.6-25,17s8.4-77,25-77S544.7,176.4,544.7,193L544.7,193z"/>
<path class="st0" d="M504.3,159.9c4.3-2.5,9.6-1.7,13.7,0.9c4.7,2.9,7.3,7.9,8.4,13.2c1.1,5.7,1.1,11.5-0.1,17.1
	c-1.1,5.4-4,11.2-9.8,12.8c-3.9,1-8.2-0.3-9.6-4.3c-1.1-3.3-0.4-6.8,1.8-9.5c3.3-3.7,8.9-3.8,13.2-2c5,2.1,8.1,7,9.3,12.1
	c1.5,6.1,0.6,12.4-1,18.4c-1.7,6.5-4.1,12.9-6.1,19.2c-4.1,12.5-7.8,25.2-8.8,38.3c-1.5,20.1,5.1,43.3,23.5,54
	c9.9,5.8,21.8,6.7,32.9,4.4c11.7-2.4,22.1-8.5,31.2-16.1c4.7-4,9.1-8.4,13.3-13c2.5-3.1,6.7-4.3,10.5-3.1c9.5,3,7.8,18.3-1.7,20.2
	c-4.3,0.9-8.9-1.2-12.1-4c-3.5-3.2-5.9-7.3-7-11.9c-2.4-9.6,0.4-20.2,6.1-28.2c6.4-9,16.9-14.6,27.2-17.9c11.7-3.8,24-4.9,36.2-6.1
	c12.5-1.3,25.1-2.7,36.9-7.3c9.5-3.7,18.3-8.9,26.1-15.5c15.7-13.1,26.8-30.9,31.7-50.7c1.1-4.8,1.9-9.7,2.2-14.6
	c0.1-1.9-2.9-1.9-3,0c-1.5,21.5-11.4,41.9-26.4,57.1c-7.5,7.6-16.3,13.9-25.9,18.5c-11.6,5.5-24.3,7.7-37,9
	c-13,1.4-26.1,2.2-38.7,5.9c-11.1,3.2-22.3,8.6-29.9,17.6c-6.7,7.9-10.4,18.9-9.1,29.2c1.2,9.7,7.4,19.6,17.5,21.7
	c4.8,1,9.7-0.3,12.8-4.1c3.6-4.4,4.4-10.5,2-15.7c-3-5.7-9.9-8.2-15.9-5.7c-2.1,1-4,2.4-5.4,4.2c-8.7,9.5-18.5,18.3-30.3,23.7
	c-11,5-24,6.8-35.7,3c-22.1-7.2-30.5-32.4-29.2-53.7c0.9-13.9,5-27.3,9.4-40.4c2.2-6.7,4.7-13.4,6.3-20.3c1.4-6.2,1.8-12.7-0.2-18.8
	c-1.8-5.3-5.3-10.1-10.6-12.3c-4.8-2-10.6-2-14.9,1.2c-6.2,4.6-6.7,16.1,0.9,19.6c5.1,2.4,11.1,0.5,14.9-3.4
	c4.2-4.4,5.5-10.6,6-16.4c0.9-11.1-1.6-24.4-12.8-29.4c-4.6-2.1-10-2.3-14.5,0.3c-0.7,0.4-0.9,1.4-0.5,2.1
	C502.8,160.1,503.6,160.3,504.3,159.9L504.3,159.9z"/>
<path class="st1" d="M773.7,174c0,17.6,27.6,62.4,18.3,75.8c-1.2,1.7-2.4,3.3-3.7,4.9c-4.1,5.2-8.9,9.9-14.2,13.9
	c-0.9,0.7-1.8,1.4-2.7,2c-3.2,2.3-6.6,4.4-10.2,6.2c-0.6,0.3-1.3,0.6-1.9,1c-41.6,20-91.5,2.5-111.4-39.1
	c-15.5-32.2-8.8-70.6,16.7-95.7c0.7-0.7,1.5-1.5,2.3-2.2c7.7-7.1,16.7-12.7,26.5-16.4c0,0,0,0,0,0c14.7-5.6,30.7-6.9,46.1-3.9h0
	c0.3,0.1,0.7,0.1,1,0.2C778.4,128.8,773.7,133.8,773.7,174z"/>
<path class="st0" d="M761.3,276.4c0,0.1,0,0.3,0,0.4c-0.6,0.3-1.3,0.6-1.9,1c-0.6-0.2-1-0.7-1-1.3c-0.1-1.5-0.4-3-0.9-4.5
	c-3.9-12.6-17.6-19-29.5-21.2c-14.6-2.8-30-1.6-43.9-7.7c-5.7-2.3-10.7-6-14.7-10.7c-4.1-5.2-6.2-11.7-5.8-18.4
	c0.8-15.6,11.8-27.8,15.6-42.5c1.5-6.1,1.5-12.4-1.2-18.1c-2.3-4.9-6.5-9.1-12.1-9.7c-0.5,0-0.9-0.3-1.1-0.7
	c0.7-0.7,1.5-1.5,2.3-2.2c1,0.2,2,0.4,3,0.8c5.5,2.1,9.3,6.9,11.4,12.2c2.5,6.2,2.2,12.8,0.5,19.1c-4,14.8-15.8,27.6-15.3,43.5
	c0.4,13.8,12.4,22.4,24.6,26c15,4.5,31.3,2.4,46.2,7.6C748.9,254.1,760.3,263.3,761.3,276.4z"/>
<path class="st0" d="M774.2,268.6c-0.9,0.7-1.8,1.4-2.7,2c-0.2-0.3-0.4-0.6-0.3-1c0.5-12.9-4-25.6-12.5-35.3
	c-3.7-4.3-8.1-7.9-13-10.7c-5.1-2.9-10.7-4.5-16.3-6.3c-5.5-1.8-11-4-15.2-8c-4.3-4.2-6.4-9.8-7-15.7c-1.5-13.8,5.4-26.6,6-40.2
	c0.2-6.1-1.1-12-4.9-16.9c-3.3-4.2-8.1-7.1-13.5-6.5c-1.8,0.2-1.9-2.4-0.3-2.9c0.1,0,0.2-0.1,0.3-0.1c6.3-0.7,12.1,2.7,15.9,7.6
	c4.4,5.7,5.9,12.6,5.5,19.6c-0.9,13.7-8.1,26.8-5.7,40.7c0.8,5.9,4.1,11.2,9,14.6c5,3.3,11,4.8,16.6,6.6c5.6,1.7,11,4.3,15.8,7.7
	c4.7,3.5,8.9,7.6,12.3,12.4C770.9,245.8,774.4,257.1,774.2,268.6z"/>
<path class="st0" d="M792,249.8c-1.1,1.7-2.4,3.3-3.7,4.9c1.3-7.8,1-15.7-0.9-23.4c-2.3-9.6-7.1-18.5-13.7-25.8
	c-3.3-3.6-7.2-6.8-11.4-9.3c-4.8-2.9-10.2-5.4-13.6-10c-7.4-10.2-2.4-23.4,0-34.3c1.3-5.7,1.9-11.8-0.4-17.3
	c-1.8-4.3-5.4-8.3-10.2-8.8c-1.9-0.2-1.9-3.2,0-3c0.4,0,0.7,0.1,1.1,0.1c5.3,1,9.4,4.9,11.6,9.8c2.9,6.4,2.3,13.2,0.8,19.9
	c-2.4,11-8,25.5,2,34.5c4.2,3.8,9.7,5.9,14.3,9.2c4.1,3,7.7,6.5,10.9,10.5C788.4,219,793.1,234.3,792,249.8z"/>
<polygon class="st7" points="255.2,664.4 272.9,664.4 281.4,596 255.2,596 "/>
<path class="st2" d="M245.8,695.2h12.7l2.3-12l5.8,12h33.8c4.2,0,7.6-3.4,7.6-7.6c0-2.5-1.2-4.8-3.3-6.2l-27-18.6v-12.1l-28.4,1.7
	L245.8,695.2z"/>
<polygon class="st7" points="117.6,629.2 132.8,638.3 175,583.7 152.5,570.3 "/>
<path class="st2" d="M93.8,650.9l10.9,6.5l8.1-9.2l-1.1,13.3l29,17.2c3.6,2.1,8.3,0.9,10.4-2.7c1.3-2.1,1.4-4.8,0.4-7l-13.7-29.8
	l6.2-10.4l-25.2-13L93.8,650.9z"/>
<polygon class="st7" points="257.1,226.8 271.7,281.7 189.8,282.8 200.6,230 "/>
<path class="st2" d="M272,281l17.4,56.7l7.7,151.8l-20,144.9h-22.1L246,491.9l-22.3-97.5l13,102l-68.3,99.8h-33.6l61.7-110
	L160.7,372c0,0,3.6-56.5,26.4-86.5l5.5-16L272,281z"/>
<path class="st0" d="M273.2,176.1c0-0.5-0.1-1-0.2-1.5c-3.7-24.7-26.6-41.8-51.4-38.2c-11.1,1.7-21.3,7.3-28.6,16v0
	c-0.4,0.4-0.7,0.9-1.1,1.4c-0.6,0.8-1.2,1.6-1.8,2.5c-5.1,7.7-7.7,16.8-7.5,26c0,0,4.3,22.8,5.2,28.8c0.6,3.9,1.1,7.7,1.4,11.5
	c0.2,1.9,0.4,3.7,0.5,5.6v0c0.7,9,0.9,17,1.2,23.2c0.1,3.4,2.4,13,2.6,13.1c0.1,0.1,0.3,0.2,0.5,0.3c2.4,1.4,5.4,1.5,7.9,0.3
	l10.6-4.9l0,0c7-3.3,14.8-4.5,22.5-3.5c12.6,1.6,30.9,3.9,31.7,3.2c1-0.8,5.8-43.6,7-57c0.2-1.9,0.3-3.9,0.4-6.1v0
	C274.3,190,274,183,273.2,176.1z"/>
<path class="st4" d="M334,183.8c-1.8,5.3-7.6,8.2-12.9,6.4c-0.6-0.2-1.1-0.4-1.6-0.7l-26.9,24.3l-2.9-18.6l25.9-20.2
	c3-4.8,9.4-6.2,14.2-3.1C333.8,174.4,335.5,179.3,334,183.8L334,183.8z"/>
<path class="st0" d="M234.1,136.7c0,0,26.4,4.9,11.4,56.2l5.8,25.4l27.3-15.7l1.7-6.6l23.9-16.7l11.3,20.3l-13.7,13.1l-4,8.2l-7,2.3
	l-21.8,20.8l-9.1,5.6c0,0-11.6,7.2-22,3.3c-2.8-1-5.3-2.5-7.6-4.3c-4.5-3.6-8.5-9.1-11-17.4c-9.3-30.8-12.8-52.4-12.8-52.4
	L234.1,136.7z"/>
<path class="st0" d="M332.3,208.8l-16-60.2c-0.2-0.7,0.2-1.4,0.9-1.6c0.7-0.2,1.3,0.2,1.6,0.8l21.5,56.3L332.3,208.8z"/>
<path class="st8" d="M345.6,222.5c-2.3-0.5-4.6-1.2-6.8-2.3c-1.1-0.5-2.2-1.1-3.2-1.7c-0.4-0.2-0.7-0.4-1.1-0.6
	c-0.9-0.5-1.7-1-2.6-1.5c-0.7-0.4-1.5-0.9-2.2-1.3c-1.1-0.6-2.2-1.4-2.5-2.6c-0.2-1.2,0.1-2.3,0.9-3.2c0.8-0.9,1.7-1.7,2.7-2.4
	c2.3-1.7,4.5-3.3,6.8-5l0.6-1.3c1.8,0.8,3.5,1.9,5,3.2c1.2,1.2,1.8,2.8,1.8,4.5c0,0.4-0.1,0.7-0.2,1.1c-0.4,1.5-1.6,2.8-2.3,4.3
	c-0.1,0.3-0.3,0.6-0.4,0.9c-0.6,1.9-0.3,4,0.7,5.7C343.6,221.3,344.5,222,345.6,222.5z"/>
<path class="st5" d="M348.9,223c-1.1,0.1-2.3-0.1-3.3-0.6C346.7,222.7,347.8,222.9,348.9,223z"/>
<path class="st1" d="M345.6,222.5c-2.3-0.5-4.6-1.2-6.8-2.3c-1.1-0.5-2.2-1.1-3.2-1.7c-0.4-0.2-0.7-0.4-1.1-0.6
	c-0.9-0.5-1.7-1-2.6-1.5c0.3-0.4,0.6-0.8,1-1.2c3.2-3.5,7.6-5.5,12-6.9c0,0.4-0.1,0.7-0.2,1.1c-0.4,1.5-1.6,2.8-2.3,4.3
	c-0.1,0.3-0.3,0.6-0.4,0.9c-0.6,1.9-0.3,4,0.7,5.7C343.6,221.3,344.5,222,345.6,222.5z"/>
<path class="st8" d="M878.7,695.4c0,0.7-0.5,1.2-1.2,1.2c0,0,0,0,0,0H15.2c-0.7,0-1.2-0.5-1.2-1.2s0.5-1.2,1.2-1.2h862.3
	C878.1,694.2,878.7,694.7,878.7,695.4C878.7,695.4,878.7,695.4,878.7,695.4z"/>
<ellipse transform="matrix(0.4797 -0.8775 0.8775 0.4797 32.787 244.0406)" class="st7" cx="222.2" cy="94.4" rx="34.6" ry="34.6"/>
<path class="st2" d="M201,66.1L201,66.1c0,1.5-0.2,3-0.6,4.5c-0.1,0.3-0.1,0.5-0.2,0.8v0c-1.7,5.3-5.7,9.5-10.9,11.3
	c-0.4,0.1-0.8,0.3-1.2,0.4c-0.8,0.2-1.7,0.4-2.5,0.5c-0.8,0.1-1.5,0.2-2.3,0.2c-0.6,0-1.2,0-1.8-0.1c-1.4-0.1-2.8-0.5-4.1-0.9
	c-0.2-0.1-0.4-0.1-0.6-0.2c-0.1,0-0.2-0.1-0.3-0.1c-9-3.8-13.2-14.1-9.5-23.1c0.1-0.3,0.2-0.5,0.4-0.8l0,0c0.9-1.8,2-3.5,3.5-4.9
	c3.2-3.2,4.6-11.1,9.4-11.1c0.2,0,0.5,0,0.7,0c3.2,0.1,9.3,7.1,11.8,8.8c1.9,1.2,3.5,2.8,4.8,4.6c1.4,1.9,2.3,4,2.8,6.3
	C200.9,63.5,201,64.8,201,66.1z"/>
<path class="st2" d="M179.5,60c-2.7,3.2-7,4.4-10.9,6.1c-13.9,6.1-23.8,18.6-26.6,33.5c-1.1,6-0.9,12.1-2.6,18
	c-1.7,5.8-5.8,11.5-11.8,12.5c-4,0.7-8.1-0.9-11.9-2.4c-2.1-0.8-4.2-1.7-6.3-2.5c2.2-5.5,4.4-10.9,6.5-16.4
	c-3.5,5.2-7.6,9.9-12.1,14.2c-7.5-3-15-6-22.5-9.1C99.7,113.9,96.6,96,100.7,78c2.3-9.9,21.6-16.6,25.4-26
	c5.9-14.7,22.7-21.9,37.4-16c6.4,2.6,11.6,7.3,14.8,13.3C182.1,50.9,182.2,56.8,179.5,60z"/>
<path class="st2" d="M253.5,59.7c-3.4-4.5-11.9-4.6-13.6,0.7l-3.6-4.9c-4.7-10.2-16.9-8.1-28.1-6.8c-11.1,1.3-20.9,9.2-25.9,19.2
	c-5,10-5.4,21.9-2.6,32.8c1.9,7.3,5.5,14.4,11.3,19.1s33.5,15.9,35.8,6.3c-2.9,12.5,2.9,10.6,11.5,20.2c4.4-13.3,6.5-38.4,10.9-51.7
	c0.7-2,1.3-4,2-6c1.4-4.2,2.8-8.4,3.8-12.8C256.4,70.4,256.9,64.2,253.5,59.7z"/>
<path class="st3" d="M230.7,97.9l-1.5-9.4c1-11.7-0.6-30.4,7.1-32.9l4.7,4.7C238,61.2,232.4,78.8,230.7,97.9z"/>
<path class="st3" d="M241.7,48c0,7.2-2.5,13-5.5,13s-5.5-5.8-5.5-13s5.5-13,5.5-13S241.7,40.8,241.7,48z"/>
<path class="st3" d="M246.3,51.2c-2.9,6.6-7.5,10.9-10.3,9.7s-2.7-7.5,0.2-14.1s10.3-9.7,10.3-9.7S249.1,44.6,246.3,51.2z"/>
<text transform="matrix(1 0 0 1 727.389 47.6532)" class="st9 st10">Painting</text>
</svg>
