<?xml version="1.0" encoding="utf-8"?>
<!-- Generator: Adobe Illustrator 25.4.2, SVG Export Plug-In . SVG Version: 6.00 Build 0)  -->
<svg version="1.1" id="Layer_1" xmlns="http://www.w3.org/2000/svg" xmlns:xlink="http://www.w3.org/1999/xlink" x="0px" y="0px"
	 viewBox="0 0 858.8 581.9" style="enable-background:new 0 0 858.8 581.9;" xml:space="preserve">
<style type="text/css">
	.st0{fill:#F2F2F2;}
	.st1{fill:#6C63FF;}
	.st2{fill:#3F3D56;}
	.st3{fill:#FFFFFF;}
	.st4{fill:#CCCCCC;}
	.st5{fill:#2F2E41;}
	.st6{fill:#FFB8B8;}
	.st7{fill:#B3B3B3;}
	.st8{fill:#E6E6E6;}
	.st9{font-family:'ArialMT';}
	.st10{font-size:29px;}
</style>
<path class="st0" d="M812,579.6c2-21.7,7.6-42.8,16.4-62.7c2.5-5.5,5.2-10.9,8.2-16.2c0.3-0.6,0.1-1.3-0.5-1.6
	c-0.6-0.3-1.3-0.1-1.6,0.4c-10.8,19.2-18.4,40.1-22.4,61.8c-1.1,6.1-2,12.2-2.5,18.3C809.4,581.2,811.8,581.2,812,579.6L812,579.6z"
	/>
<circle class="st0" cx="842.4" cy="489.3" r="15.3"/>
<path class="st0" d="M813.5,580c1.3-14,4.9-27.8,10.7-40.7c1.6-3.6,3.4-7.1,5.3-10.5c0.2-0.4,0.1-0.9-0.3-1.1
	c-0.4-0.2-0.8-0.1-1,0.3c-7,12.5-11.9,26-14.5,40.1c-0.7,3.9-1.3,7.9-1.6,11.9C811.9,581.1,813.5,581,813.5,580L813.5,580z"/>
<circle class="st0" cx="833.3" cy="521.5" r="9.9"/>
<path class="st0" d="M811.6,579.1c-7.6-11.9-13.2-24.9-16.6-38.6c-0.9-3.8-1.7-7.7-2.3-11.5c-0.1-0.4-0.5-0.7-0.9-0.6
	c-0.4,0.1-0.7,0.4-0.7,0.9c2.1,14.1,6.6,27.9,13.2,40.6c1.8,3.5,3.8,7,6,10.4C810.9,580.9,812.1,580,811.6,579.1L811.6,579.1z"/>
<circle class="st0" cx="791.1" cy="520.8" r="9.9"/>
<path class="st0" d="M170.4,579.6c-2-21.7-7.6-42.8-16.4-62.7c-2.5-5.5-5.2-10.9-8.2-16.2c-0.3-0.6-0.1-1.3,0.5-1.6
	c0.6-0.3,1.3-0.1,1.6,0.4c10.8,19.2,18.4,40.1,22.4,61.8c1.1,6.1,2,12.2,2.5,18.3C173,581.2,170.6,581.2,170.4,579.6L170.4,579.6z"
	/>
<circle class="st0" cx="140" cy="489.3" r="15.3"/>
<path class="st0" d="M168.9,580c-1.3-14-4.9-27.8-10.7-40.7c-1.6-3.6-3.4-7.1-5.3-10.5c-0.2-0.4-0.1-0.9,0.3-1.1
	c0.4-0.2,0.8-0.1,1,0.3c7,12.5,11.9,26,14.5,40.1c0.7,3.9,1.3,7.9,1.6,11.9C170.5,581.1,169,581,168.9,580L168.9,580z"/>
<circle class="st0" cx="149.1" cy="521.5" r="9.9"/>
<path class="st0" d="M170.8,579.1c7.6-11.9,13.2-24.9,16.6-38.6c0.9-3.8,1.7-7.7,2.3-11.5c0.1-0.4,0.5-0.7,0.9-0.6
	c0.4,0.1,0.7,0.4,0.7,0.9c-2.1,14.1-6.6,27.9-13.2,40.6c-1.8,3.5-3.8,7-6,10.4C171.5,580.9,170.3,580,170.8,579.1L170.8,579.1z"/>
<circle class="st0" cx="191.3" cy="520.8" r="9.9"/>
<path class="st1" d="M754.4,379.4l0.2,180.1c0,7-5.6,12.6-12.6,12.6l-74.8,0.1c21.1-39.4,33-101.4,32.9-149.2
	c0-18.9-1.9-37.7-5.7-56.2l47.3-0.1C748.7,366.8,754.4,372.4,754.4,379.4z"/>
<path class="st2" d="M857.6,581.9H119.3c-0.7,0-1.2-0.5-1.2-1.2c0-0.7,0.5-1.2,1.2-1.2h738.3c0.7,0,1.2,0.5,1.2,1.2
	C858.8,581.4,858.2,581.9,857.6,581.9z"/>
<path class="st2" d="M644.8,354.8l-133.3-0.5l13-43.1c2.1-7,8.5-11.7,15.8-11.8h0.1l76.1,0.3c7.3,0.1,13.7,4.9,15.8,11.9
	L644.8,354.8z"/>
<path class="st1" d="M719.2,340c-7.7,0-14,6.3-14,14h28C733.2,346.3,726.9,340,719.2,340z"/>
<path class="st2" d="M762.2,581h-368c-9.4,0-17-7.6-17-17V370c0-9.4,7.6-17,17-17h368c9.4,0,17,7.6,17,17v194
	C779.2,573.4,771.6,581,762.2,581z M394.2,355c-8.3,0-15,6.7-15,15v194c0,8.3,6.7,15,15,15h368c8.3,0,15-6.7,15-15V370
	c0-8.3-6.7-15-15-15H394.2z"/>
<path class="st3" d="M594.2,338.5h-32c-4.7,0-8.5-3.8-8.5-8.5s3.8-8.5,8.5-8.5h32c4.7,0,8.5,3.8,8.5,8.5S598.9,338.5,594.2,338.5z"
	/>
<path class="st2" d="M578.2,543c-42,0-76-34-76-76s34-76,76-76s76,34,76,76C654.2,509,620.2,543,578.2,543z M578.2,393
	c-40.9,0-74,33.1-74,74s33.1,74,74,74s74-33.1,74-74C652.2,426.2,619.1,393,578.2,393z"/>
<path class="st2" d="M578.2,517c-27.6,0-50-22.4-50-50s22.4-50,50-50s50,22.4,50,50C628.2,494.6,605.8,517,578.2,517z M578.2,419
	c-26.5,0-48,21.5-48,48s21.5,48,48,48s48-21.5,48-48C626.2,440.5,604.7,419,578.2,419z"/>
<circle class="st4" cx="578.2" cy="467" r="38"/>
<path class="st3" d="M555.2,467c0-12.5,9.2-23,21.5-24.8c-13.7-1.9-26.3,7.6-28.3,21.2c-1.9,13.7,7.6,26.3,21.2,28.3
	c2.3,0.3,4.7,0.3,7,0C564.4,490,555.2,479.5,555.2,467z"/>
<path class="st2" d="M744.2,355h-50v-1c0-13.8,11.2-25,25-25s25,11.2,25,25V355z M696.2,353h46c-0.6-12.7-11.3-22.5-24-22
	C706.3,331.5,696.7,341.1,696.2,353z"/>
<path class="st2" d="M402.2,383c-5.5,0-10-4.5-10-10s4.5-10,10-10s10,4.5,10,10C412.2,378.5,407.7,383,402.2,383z M402.2,365
	c-4.4,0-8,3.6-8,8s3.6,8,8,8s8-3.6,8-8C410.2,368.6,406.6,365,402.2,365z"/>
<circle class="st1" cx="402.2" cy="373" r="5"/>
<circle class="st4" cx="428.2" cy="373" r="5"/>
<circle class="st4" cx="454.2" cy="373" r="5"/>
<path class="st2" d="M428.2,383c-5.5,0-10-4.5-10-10s4.5-10,10-10s10,4.5,10,10C438.2,378.5,433.7,383,428.2,383z M428.2,365
	c-4.4,0-8,3.6-8,8s3.6,8,8,8s8-3.6,8-8C436.2,368.6,432.6,365,428.2,365z"/>
<path class="st2" d="M454.2,383c-5.5,0-10-4.5-10-10s4.5-10,10-10s10,4.5,10,10C464.2,378.5,459.7,383,454.2,383z M454.2,365
	c-4.4,0-8,3.6-8,8s3.6,8,8,8s8-3.6,8-8C462.2,368.6,458.6,365,454.2,365z"/>
<rect x="378.2" y="439.9" class="st2" width="130" height="2"/>
<rect x="378.2" y="480.1" class="st2" width="126.8" height="2"/>
<rect x="648.2" y="439.9" class="st2" width="130" height="2"/>
<rect x="651.2" y="480.1" class="st2" width="126.8" height="2"/>
<path class="st5" d="M272.8,242.5c-8.1-3.7-13.4-14.4-13.1-24.9c0.3-10.5,5.8-20.3,13.5-25.3c7.6-4.8,17-5.6,25.2-1.9
	c8.2,3.5,19.2,4.4,24.1,13.1c3.8,6.7,2.4,21.5-0.3,28.9c-2.3,6.4-8,10-13.5,12c-12.4,4.5-26,3.4-37.5-3"/>
<polygon class="st6" points="223.4,568.7 211.7,564.9 220.8,518.1 238,523.7 "/>
<path class="st5" d="M204.5,558.9l22.5,7.3l0,0l-4.6,14.2l0,0l-36.6-11.9l0,0l0,0C188.3,560.6,196.7,556.3,204.5,558.9z"/>
<polygon class="st6" points="327.8,569 315.5,569 309.7,521.7 327.8,521.7 "/>
<path class="st5" d="M306.7,565.5h23.6l0,0v14.9l0,0h-38.5l0,0l0,0C291.8,572.1,298.5,565.5,306.7,565.5z"/>
<path class="st5" d="M327.1,549.6c-0.1,0-0.1,0-0.2,0l-13.6-0.6c-2.4-0.1-4.2-2.1-4.3-4.4l-1.8-134.4c0-0.8-0.7-1.5-1.5-1.5
	c-0.5,0-1,0.3-1.3,0.8l-72,136.4c-0.9,1.8-2.9,2.7-4.8,2.3l-13.5-2.6c-2.4-0.5-4-2.8-3.6-5.3c0-0.2,0.1-0.4,0.2-0.7l52.4-148.6
	l4-43.9c0.2-2.1,1.8-3.8,3.9-4c15.3-1.9,36.6-14.4,45.1-19.7c1.1-0.7,2.3-0.9,3.5-0.5c1.2,0.3,2.2,1.1,2.8,2.2
	c20.4,37.9,28.2,81.3,22.3,124l-13.2,96.5C331.3,548,329.4,549.6,327.1,549.6z"/>
<circle class="st6" cx="290.6" cy="228.2" r="24.6"/>
<path class="st7" d="M266.1,357.8l-7.4-52.8c-3.8-16.7,6.8-33.3,23.5-37.1c16.7-3.7,33.3,6.7,37.1,23.5c2.1,9.8,6.4,21.7,4.8,34.5
	l0,0C313.1,356.2,293.3,365.6,266.1,357.8z"/>
<path class="st7" d="M298.6,275.8h-18c-2.5,0-4.5-2-4.5-4.5v-6c0-2.5,2-4.5,4.5-4.5h18c2.5,0,4.5,2,4.5,4.5v6
	C303.1,273.8,301.1,275.8,298.6,275.8z"/>
<path class="st6" d="M389.8,375.7c1.8-5.6-1.2-11.7-6.9-13.6c-0.6-0.2-1.2-0.3-1.8-0.4l-56-80.2l-16.6,16.4l60.3,73.7
	c-0.4,5.9,4,11.1,10,11.6C383.7,383.5,388.3,380.4,389.8,375.7z"/>
<path class="st7" d="M342.6,306l-20.2,13.5c-2.2,1.5-5.2,0.9-6.7-1.3c-0.1-0.2-0.2-0.4-0.3-0.6L305,295.6
	c-4.1-6.2-2.4-14.5,3.8-18.5c6.1-4,14.4-2.4,18.5,3.7l16.2,17.9c1.8,2,1.6,5-0.3,6.8C343,305.7,342.8,305.9,342.6,306L342.6,306z"/>
<path class="st6" d="M191.9,267.9c0.1,0.5,0.2,1.1,0.2,1.6l43,24.8l10.4-6l11.1,14.6l-17.5,12.4c-2.9,2.1-6.8,2-9.6-0.2l-44.3-34.9
	c-5.4,2-11.5-0.8-13.5-6.2s0.8-11.5,6.2-13.5c5.4-2,11.5,0.8,13.5,6.2C191.7,267.1,191.8,267.5,191.9,267.9L191.9,267.9z"/>
<path class="st7" d="M247.6,312.3l-10.8-21.8c-1.2-2.4-0.2-5.3,2.2-6.5c0.2-0.1,0.4-0.2,0.7-0.3l23.1-7.5c6.6-3.2,14.6-0.5,17.9,6.2
	c3.2,6.6,0.5,14.6-6.1,17.9l-19.9,13.8c-2.2,1.5-5.2,1-6.7-1.2C247.8,312.7,247.7,312.5,247.6,312.3L247.6,312.3z"/>
<path class="st5" d="M307,197.3c1.8,0.3,3.6-0.7,4.3-2.4c0.7-1.7,0.5-3.6-0.4-5.1c-0.9-1.5-2.2-2.8-3.8-3.7c-1.8-1.2-3.8-1.9-6-2.1
	c-2.2-0.1-4.3,0.7-5.8,2.2c-1.5,1.6-1.9,3.9-1,5.9c0.9,1.7,2.8,2.7,4.6,3.4c3.6,1.3,7.5,1.8,11.4,1.5"/>
<path class="st5" d="M314.9,239.4c-4.3,0.2-3.6-8.9-4.9-13s-3.2-9-7.4-9.7c-3.5-0.6-6.6,1.9-9.6,3.7c-5.4,3.2-12.3,4.4-18,1.7
	s-9.1-10.1-6.3-15.7c1.7-3.1,4.6-5.4,8-6.3c3.4-0.9,7-1,10.5-0.5c7.8,1,15.2,3.6,21.9,7.8c4.6,2.9,8.9,6.8,10.3,12
	s1.9,19.5-3.4,20.4L314.9,239.4z"/>
<path class="st5" d="M303.7,184.6c-3.2-4.1-2-10.6,1.8-14.2c3.8-3.6,9.4-4.8,14.6-4.3c10.5,1.1,19.7,7.6,24,17.3
	c3.3,7.5,3.3,16.2,6.2,23.8c6.4,16.5,25.1,24.7,41.6,18.3c0.6-0.2,1.2-0.5,1.8-0.8c5.2-2.4,10.1-7.1,9.8-12.8
	c3.3,12.6-2.6,27.1-13.8,33.8c-6.6,3.9-14.3,5.3-21.9,6.2c-5,0.6-10,1-14.9-0.2c-6.8-1.7-12.4-6.7-15.8-12.8s-4.8-13.2-4.8-20.1
	c0-5.4,0.7-10.9,0.3-16.3c-0.4-5.4-2-11-5.9-14.8s-10.6-5-14.9-1.7c-1.7,1.3-3,3.3-5,4.3s-5,0.2-5.2-2L303.7,184.6z"/>
<path class="st2" d="M209.6,268.1H7c-3.9,0-7-3.1-7-7V147c0-3.9,3.1-7,7-7h202.6c3.9,0,7,3.1,7,7v114.1
	C216.5,264.9,213.4,268.1,209.6,268.1z M7,141.6c-3,0-5.4,2.4-5.4,5.4v114.1c0,3,2.4,5.4,5.4,5.4h202.6c3,0,5.4-2.4,5.4-5.4V147
	c0-3-2.4-5.4-5.4-5.4L7,141.6z"/>
<circle class="st8" cx="73.8" cy="191.1" r="29"/>
<path class="st1" d="M185.4,242.3l-34-58.9c-0.7-1.2-2.1-1.6-3.3-0.9c-0.4,0.2-0.7,0.5-0.9,0.9l-20.8,35.9l-30.9-53.6
	c-0.9-1.5-2.8-2-4.2-1.1c-0.5,0.3-0.9,0.7-1.1,1.1l-43.6,75.5c-0.9,1.5-0.3,3.4,1.1,4.2c0.5,0.3,1,0.4,1.6,0.4h134.1
	c1.3,0,2.4-1.1,2.4-2.4C185.7,243.1,185.6,242.6,185.4,242.3z"/>
<rect x="14.7" y="154" class="st2" width="12.4" height="12.4"/>
<path class="st4" d="M288.4,100.1H130.1c-3,0-5.5-2.4-5.5-5.5V5.5c0-3,2.4-5.5,5.5-5.5h158.3c3,0,5.5,2.4,5.5,5.5v89.1
	C293.9,97.6,291.4,100.1,288.4,100.1z M130.1,1.2c-2.3,0-4.2,1.9-4.2,4.2v89.1c0,2.3,1.9,4.2,4.2,4.2h158.3c2.3,0,4.2-1.9,4.2-4.2
	V5.5c0-2.3-1.9-4.2-4.2-4.2L130.1,1.2z"/>
<circle class="st0" cx="182.3" cy="39.9" r="22.6"/>
<path class="st8" d="M269.5,79.9l-26.6-46c-0.5-0.9-1.7-1.2-2.6-0.7c-0.3,0.2-0.5,0.4-0.7,0.7L223.5,62l-24.2-41.9
	c-0.7-1.2-2.2-1.6-3.3-0.9c-0.4,0.2-0.7,0.5-0.9,0.9l-34.1,59c-0.7,1.2-0.3,2.6,0.9,3.3c0.4,0.2,0.8,0.3,1.2,0.3h104.8
	c1,0,1.9-0.8,1.9-1.9C269.8,80.5,269.7,80.2,269.5,79.9z"/>
<rect x="136.2" y="10.9" class="st4" width="9.7" height="9.7"/>
<text transform="matrix(1 0 0 1 616.2044 62.5812)" class="st9 st10">Photography</text>
</svg>
