<?xml version="1.0" encoding="utf-8"?>
<!-- Generator: Adobe Illustrator 25.4.2, SVG Export Plug-In . SVG Version: 6.00 Build 0)  -->
<svg version="1.1" id="Layer_1" xmlns="http://www.w3.org/2000/svg" xmlns:xlink="http://www.w3.org/1999/xlink" x="0px" y="0px"
	 viewBox="0 0 512 512" style="enable-background:new 0 0 512 512;" xml:space="preserve">
<style type="text/css">
	.st0{fill:#FFFFFF;}
</style>
<g>
	<path class="st0" d="M292.2,256l72.4,72.4c10,10,10,26.2,0,36.2s-26.2,10-36.2,0L256,292.2l-72.4,72.4c-10,10-26.2,10-36.2,0
		s-10-26.2,0-36.2l72.4-72.4l-72.4-72.4c-10-10-10-26.2,0-36.2s26.2-10,36.2,0l72.4,72.4l72.4-72.4c10-10,26.2-10,36.2,0
		s10,26.2,0,36.2L292.2,256z M256,512C114.6,512,0,397.4,0,256C0,114.6,114.6,0,256,0c141.4,0,256,114.6,256,256
		C512,397.4,397.4,512,256,512z M256,460.8c113.1,0,204.8-91.7,204.8-204.8S369.1,51.2,256,51.2C142.9,51.2,51.2,142.9,51.2,256
		S142.9,460.8,256,460.8z"/>
</g>
</svg>
