<svg id="SvgjsSvg1020" width="288" height="288" xmlns="http://www.w3.org/2000/svg" version="1.1" xmlns:xlink="http://www.w3.org/1999/xlink" xmlns:svgjs="http://svgjs.com/svgjs"><defs id="SvgjsDefs1021"></defs><g id="SvgjsG1022" transform="matrix(1,0,0,1,0,0)"><svg xmlns="http://www.w3.org/2000/svg" width="288" height="288" viewBox="0 0 16 16"><g transform="translate(-1.03 -1106.225) scale(1.06642)" fill="#40514e" class="color000 svgShape"><path style="line-height:normal;text-indent:0;text-align:start;text-decoration-line:none;text-decoration-style:solid;text-decoration-color:#000;text-transform:none;block-progression:tb;isolation:auto;mix-blend-mode:normal" fill="#f5f5f5" fill-rule="evenodd" d="m 8,2 c 3.319604,0 5.999963,2.6803455 6,6 1.8e-5,3.319654 -2.680356,6 -6,6 C 4.6803565,14 1.9980292,11.319654 1.9980469,8 1.9980837,4.6803455 4.6803952,2 8,2 Z m 3.492188,5.4980469 -6.9882818,0.011719 c -0.6679685,0.0013 -0.6660153,1.0032553 0.00195,1.0019532 l 6.9882816,-0.013672 c 0.676089,0.00815 0.674099,-1.010791 -0.002,-1 z" color="#000" font-family="sans-serif" font-weight="400" overflow="visible" transform="translate(.965 1037.328) scale(.93772)" class="colorc2e4f8 svgShape"></path><path style="line-height:normal;text-indent:0;text-align:start;text-decoration-line:none;text-decoration-style:solid;text-decoration-color:#000;text-transform:none;block-progression:tb;isolation:auto;mix-blend-mode:normal" fill="#2f89fc" fill-rule="evenodd" d="M 8 1 C 4.139959 1 1.0000428 4.1398846 1 8 C 0.99997942 11.860115 4.1399146 15 8 15 C 11.860086 15 15.00002 11.860115 15 8 C 14.999957 4.1398846 11.860041 1 8 1 z M 8 2 C 11.319604 2 13.999963 4.6803455 14 8 C 14.000018 11.319654 11.319644 14 8 14 C 4.6803565 14 1.9980292 11.319654 1.9980469 8 C 1.9980837 4.6803455 4.6803952 2 8 2 z M 11.492188 7.4980469 L 4.5039062 7.5097656 A 0.50095123 0.50095123 0 0 0 4.5058594 8.5117188 L 11.494141 8.4980469 A 0.50005001 0.50005001 0 1 0 11.492188 7.4980469 z " color="#000" font-family="sans-serif" font-weight="400" overflow="visible" transform="translate(.965 1037.328) scale(.93772)" class="color249fe6 svgShape"></path></g></svg></g></svg>