<svg id="_лой_1" data-name="‘лой_1" xmlns="http://www.w3.org/2000/svg" xmlns:xlink="http://www.w3.org/1999/xlink" viewBox="0 0 3166.14 2000"><defs><style>.cls-1{fill:none;}.cls-2{fill:#fff;}.cls-3{fill:#d2e0ff;}.cls-4{fill:#aec3ff;}.cls-5{fill:#bbd0ff;}.cls-6{fill:#c5daff;}.cls-7{fill:#dfebfa;}.cls-8{fill:#8c9df4;}.cls-9{clip-path:url(#clip-path);}.cls-10{fill:#8fadef;}.cls-11{fill:#7087e8;}.cls-12{fill:#344ab7;}.cls-13{fill:#2a4570;}.cls-14{fill:#4656cc;}.cls-15{fill:#f77d48;}.cls-16{fill:#192e4f;}.cls-17{fill:#505cd1;}.cls-18{fill:#ffb27d;}.cls-19{fill:#2b478b;}.cls-20{fill:#ce5a19;}.cls-21{fill:#d85e21;}.cls-22{fill:#ef7e29;}.cls-23{fill:#f99746;}.cls-24{fill:#ed985f;}.cls-25{fill:#233862;}.cls-26{fill:#2a4e96;}.cls-27{fill:#ffb255;}.cls-28{fill:#163560;}.cls-29{fill:#d35c2b;}.cls-30{fill:#e8945b;}.cls-31{opacity:0.5;}.cls-32{fill:#ed9443;}.cls-33{fill:#5a71e5;}.cls-34{fill:#f0f6ff;}</style><clipPath id="clip-path"><path class="cls-1" d="M2915.82,1849.54c-157.57,0-2453,.56-2454.28-3.51l-.22-.51a2.77,2.77,0,0,1-.23-.76c-.88-2-353.67-573.58,194.79-971.46,214.59-155.68-13.43-258.45,157.21-431.76,196.12-199.16,410.14,21.16,628.22-69.15,38.53-15.94,77.19-41.6,115.89-81a429.37,429.37,0,0,1,71.23-58.23c79.29-52.07,173.89-77.6,268.86-84.67,243.67-18,517.88,83.41,659.39,231.7,28.49,29.86,158.05,184.36,55.93,396.72-64.48,134.08,205.64,262.13,301.62,415.24C3158.27,1581.45,2918,1844.47,2915.82,1849.54Z"/></clipPath></defs><rect class="cls-2" x="166.14" width="3000" height="2000"/><path class="cls-3" d="M3022.12,1576.16c-11.52,151.53-86.93,248.8-103.21,269.37-1.86,2.35-2.95,3.69-3.08,4-53.68,0-355.44.07-730.09,0-227.08,0-480.95-.15-722.58-.34-529.94-.42-1001-1.31-1001.62-3.16l-.23-.5h0a2.86,2.86,0,0,1-.22-.76c-.33-.77-51.11-83.18-84.31-206.9-13.46-50.12-24-107-27.2-168-9.66-186.1,49.64-410.34,306.3-596.53,214.59-155.68-13.43-258.46,157.21-431.77,196.12-199.16,410.14,21.16,628.22-69.15,38.52-15.94,77.19-41.6,115.9-81a428.92,428.92,0,0,1,71.22-58.22c79.21-52,173.93-77.64,268.87-84.67,243.65-18,517.87,83.41,659.38,231.7,28.5,29.86,158.05,184.36,55.93,396.73-25.24,52.48.79,104,47.58,156.55,72.73,81.62,195.63,165.51,254,258.68,40.76,65,68,126.51,85.11,183.86a589.77,589.77,0,0,1,18.74,84.74A527.48,527.48,0,0,1,3022.12,1576.16Z"/><path class="cls-4" d="M1793.2,368s30-64.26,101.93-57.12c0,0,104.35-107.1,215.62-14.28,0,0,118.29-23,205.89,19.92,58.4,28.61,77.69,58.62,77.69,58.62Z"/><path class="cls-5" d="M1847.17,1207.82h-38.05v-89.63l-1.77-1.07H1796v0h-66v0H1730v13.44h.06v9.24H1730v13.43h.06v9.27H1730v13.44h.06v0l-7,0v-70.28H1649v8.9h0V1128h0v11.81h0v13.43h0v9.27h0v13.44h0v8.58h0V1198h0v8.58h0V1220h0v8.08h0v8.53h0v.93h-83.48v76.9h-31.19v19.36h-33.62v-33.35h-60.49v-90.63h-9.46v-9h-1.36v9h-47.08v-9h-1.35v9h-10.22v45.57l-50.81-.25v28.13h-43.08V1109.35H1149.19v186.28h-39V1194.9H982.58v651.67l872.14-3.51Z"/><polygon class="cls-5" points="982.7 1313.56 982.7 1374.64 982.7 1465.5 982.7 1842.13 918.6 1842.13 918.6 1465.5 918.6 1374.64 918.6 1313.56 982.7 1313.56"/><rect class="cls-6" x="1182.02" y="1109.35" width="94.79" height="29.47"/><rect class="cls-6" x="1182.02" y="1154.71" width="94.79" height="29.47"/><rect class="cls-6" x="1182.02" y="1201.03" width="94.79" height="29.47"/><rect class="cls-6" x="1182.02" y="1248.08" width="94.79" height="29.47"/><rect class="cls-6" x="1182.02" y="1293.48" width="94.79" height="29.47"/><rect class="cls-6" x="1648.97" y="1105.66" width="47.4" height="17.9"/><rect class="cls-6" x="1648.97" y="1133.21" width="47.4" height="17.9"/><rect class="cls-6" x="1648.97" y="1161.33" width="47.4" height="17.9"/><rect class="cls-6" x="1648.97" y="1189.91" width="47.4" height="17.9"/><rect class="cls-6" x="1648.97" y="1217.48" width="47.4" height="17.9"/><rect class="cls-6" x="1648.97" y="1247.82" width="47.4" height="17.9"/><rect class="cls-6" x="1648.97" y="1275.38" width="47.4" height="17.9"/><rect class="cls-6" x="1648.97" y="1303.5" width="47.4" height="17.9"/><rect class="cls-6" x="1648.97" y="1332.08" width="47.4" height="17.9"/><rect class="cls-6" x="1648.97" y="1359.65" width="47.4" height="17.9"/><rect class="cls-6" x="1730.1" y="1117.39" width="47.4" height="17.9"/><rect class="cls-6" x="1730.1" y="1144.95" width="47.4" height="17.9"/><rect class="cls-6" x="1730.1" y="1173.07" width="47.4" height="17.9"/><rect class="cls-6" x="1730.1" y="1201.65" width="47.4" height="17.9"/><rect class="cls-6" x="1730.1" y="1229.22" width="47.4" height="17.9"/><rect class="cls-6" x="1730.1" y="1257.96" width="47.4" height="17.9"/><rect class="cls-6" x="1730.1" y="1285.51" width="47.4" height="17.9"/><rect class="cls-6" x="1730.1" y="1313.64" width="47.4" height="17.9"/><rect class="cls-6" x="1730.1" y="1342.22" width="47.4" height="17.9"/><rect class="cls-6" x="1730.1" y="1369.79" width="47.4" height="17.9"/><rect class="cls-5" x="1581.02" y="1201.65" width="2.35" height="36.52"/><rect class="cls-5" x="1620.65" y="1170.28" width="3.66" height="70.73"/><rect class="cls-7" x="1157.66" y="1096.32" width="1.52" height="13.02"/><rect class="cls-7" x="1189.97" y="1096.32" width="1.52" height="13.02"/><rect class="cls-7" x="1264.03" y="1096.32" width="1.52" height="13.02"/><rect class="cls-7" x="1656.31" y="1095.61" width="1.18" height="10.05"/><rect class="cls-7" x="1711.91" y="1095.61" width="1.18" height="10.05"/><rect class="cls-7" x="1235.08" y="1096.32" width="1.52" height="13.02"/><path class="cls-5" d="M2777.61,1206.85h-49.05v-89.63l-1.89-1.07h-12.2v0h-71v0h-.06v13.44h.06v9.24h-.06v13.43h.06v9.27h-.06V1175h.06v0l-7.52,0v-70.29H2556.3v8.91h0V1127h0v11.81h0v13.43h0v9.27h0V1175h0v8.58h0V1197h0v8.58h0V1219h0v8.08h0v8.53h0v.93h-89.79v76.89H2433v19.37H2396.8v-33.36h-65.06v-90.62h-10.18v-9h-1.45v9h-50.64v-9H2268v9h-11v45.57l-54.65-.25v28.13H2156V1108.38H2018.76v186.28h-41.93V1193.93H1839.55v651.68l938.06-3.51Z"/><polygon class="cls-5" points="1856.76 1312.6 1856.76 1373.67 1856.76 1464.54 1856.76 1841.16 1789.07 1841.16 1789.07 1464.54 1789.07 1373.67 1789.07 1312.6 1856.76 1312.6"/><rect class="cls-6" x="2067.24" y="1108.38" width="88.79" height="29.47"/><rect class="cls-6" x="2067.24" y="1153.75" width="88.79" height="29.47"/><rect class="cls-6" x="2067.24" y="1200.06" width="88.79" height="29.47"/><rect class="cls-6" x="2067.24" y="1247.12" width="88.79" height="29.47"/><rect class="cls-6" x="2067.24" y="1292.51" width="88.79" height="29.47"/><rect class="cls-5" x="2488.59" y="1200.68" width="2.48" height="36.52"/><rect class="cls-5" x="2530.43" y="1169.32" width="3.86" height="70.73"/><rect class="cls-5" x="2041.52" y="1095.36" width="1.61" height="13.02"/><rect class="cls-5" x="2075.63" y="1095.36" width="1.61" height="13.02"/><rect class="cls-5" x="2153.85" y="1095.36" width="1.61" height="13.02"/><rect class="cls-7" x="2568.09" y="1094.64" width="1.24" height="10.05"/><rect class="cls-7" x="2626.8" y="1094.64" width="1.24" height="10.05"/><rect class="cls-5" x="2123.27" y="1095.36" width="1.61" height="13.02"/><path class="cls-8" d="M1542.39,423.62s37.72-78,127.92-69.31c0,0,131-129.94,270.59-17.32,0,0,148.44-27.9,258.37,24.16,73.29,34.71,97.5,71.13,97.5,71.13Z"/><path class="cls-4" d="M1909,895.05s21.58-48.23,73.21-42.87c0,0,74.94-80.37,154.86-10.71,0,0,85-17.26,147.87,14.94,42,21.47,55.8,44,55.8,44Z"/><path class="cls-4" d="M3022.12,1576.16c-11.52,151.53-86.93,248.8-103.21,269.37-1.86,2.35-2.95,3.69-3.08,4-53.68,0-355.44.07-730.09,0-227.08,0-480.95-.15-722.58-.34-529.94-.42-1001-1.31-1001.62-3.16l-.23-.5h0a2.86,2.86,0,0,1-.22-.76c-.33-.77-51.11-83.18-84.31-206.9,11.87-72.64,50.47-139.61,148.76-153.16,231.73-32,154.11,84,273,66.36s289.08,105.54,392.15,174.37,179.13,2.29,360.38-67.11,504.76,85.47,603.55-13.19,314.18,18.35,379.64-115,331.46-129.73,331.46-129.73l133.59-24.4a589.77,589.77,0,0,1,18.74,84.74A527.48,527.48,0,0,1,3022.12,1576.16Z"/><g class="cls-9"><path class="cls-10" d="M725.32,777.76c10.86-17,11.61-40.25,8.35-67.79a115.81,115.81,0,0,0-9.77-35l-4.38,1.58c.21.59,21,59.36-2.47,96Z"/><path class="cls-10" d="M732.37,722.33l.75-9.79c-25.77-2-49.71-11.32-63.84-31.11a115.1,115.1,0,0,1-15.19-29.8l-4.31.88A94.8,94.8,0,0,0,665,685.45C675.93,700.75,696.49,719.58,732.37,722.33Z"/><path class="cls-10" d="M892.92,740.27c20-16.28,30.3-44.32,37.39-79.15a148.25,148.25,0,0,0,2.19-46.56l-6,.17c0,.8,1.67,80.66-41.54,115.77Z"/><path class="cls-10" d="M911,726.18,908,714c32.13-8,60.38-24.94,74-53a147.81,147.81,0,0,0,12.82-40.91l5.63.18c0,.87-.82,21.5-12.17,44.88C977.69,686.83,955.74,715,911,726.18Z"/><path class="cls-4" d="M540.93,824c-1.49-.27-108.44,35.68-108.44,91.12s99.9,77.77,152.23,63.58,127.28-7,165.56,18.94,94.31-60.48,206.45-37,160.63,1.27,225.78-34.57,107.54,28,165.14,15.78,89.22-100.32,8.25-129-393.09-62.74-450.67-57.08S540.93,824,540.93,824Z"/><path class="cls-10" d="M528.66,1844.65s83.07-164.3,132.36-301.72c54.43-151.77,81.45-316.12,126.48-409.92,53-110.38,83-297.78,108.63-418.94,0,0-28.48,326.57-66.43,400.58C794,1184.25,743.3,1399.33,716.33,1533s-87.82,236.63-98,320.4C618.36,1853.42,539.46,1886.41,528.66,1844.65Z"/><path class="cls-10" d="M864.14,923.18l1-13.06c.53-.08,30.54-4.56,70.74-22.24,37-16.29,93.74-45.19,138.66-101.27l6.28,4.59C1033.5,850.24,977.18,883,938.27,900,896.12,918.5,865.43,923,864.14,923.18Zm.49-6.53.48-6.53h0Z"/><path class="cls-10" d="M964.29,877c-12-17.34-11.86-44.09-6.8-76.58a157.12,157.12,0,0,1,13-42.49l5.07.92c-.27.72-27.26,72.91-1.34,110.32Z"/><path class="cls-10" d="M1018.09,853.41c-2.27-.22-4.55-.48-6.86-.78l3.83-11.44c50.42,6.52,88.94-6.77,112.37-19.08,25.41-13.33,39.13-28.44,39.27-28.59l3.93,3.29c-.61.69-12.62,19.79-40.25,34.43A194.41,194.41,0,0,1,1018.09,853.41Z"/><path class="cls-10" d="M817,976c-135-13.2-219.71-154.16-255-204.95-6.29-9.05-12.23-17.6-14-18.85a3.08,3.08,0,0,0,1.39.42l3.51-11.47c3.88.38,6.39,3.82,19.07,22.06C607.74,814.83,713.37,952.18,851.44,957l-8.72,22.38C838,979.16,821.6,976.5,817,976Z"/><path class="cls-10" d="M568.45,895.57c-34-3.32-58.27-14.38-76.31-22.74-35.05-16.26-44.42-40.14-45-41l4.39-3.63c.14.19,14.44,18.85,47.79,34.18,30.8,14.16,84.63,28.31,166.18,15.29l7.7,16.91C636.13,900.54,594.92,898.16,568.45,895.57Z"/><path class="cls-10" d="M715.72,912.79l-8.57-5.73C762.33,835.77,747.2,755.77,747,755l5-2.34c.24.85,6,21.1,4.44,50.94A193.71,193.71,0,0,1,715.72,912.79Z"/><path class="cls-10" d="M744.25,826.63c-28.63-2.8-42-36.86-50.62-54-2.1-4.18-4.41-12.6-6.36-10.79,0,0-1.68-3-.61-2.93l3.13,1c2.49,3.37,5.34,2.71,10.16,12.27,8.13,16.17,25.17,42.67,50.42,43.06l-2.64,11.53C746.55,826.81,745.39,826.74,744.25,826.63Z"/><path class="cls-10" d="M878.18,833.89c-42.27-10.78-60.64-34.81-68.61-53.08-8.71-20-7.26-37.36-7.19-38.09l11.51-1.46a76.1,76.1,0,0,0,6.66,33.66c10.57,23.78,31.65,39.85,62.63,47.76Z"/><path class="cls-10" d="M958.47,814.42,958,803.26c30.37-7.62,58.92-23.36,76.4-49.15a169.5,169.5,0,0,0,19.18-37.56l5,.11c-.19.8-4.77,19.69-19.35,41.2A136.42,136.42,0,0,1,958.47,814.42Z"/><path class="cls-5" d="M285.41,870.07s38.31,29.81,92.67,21.19,93.42-27,144.42-9,166.64,28.84,255.84-7.35,180.24-65.83,278.54-34.35,151.09,53.3,223.91,29.52,113.76,51.17,197.06,12.18,28.4-98.09-36.08-110.21-164.62-90.91-281.13-72.73-222.9-31.61-334.29-7.58-170,60.62-282.85,51.53S200.26,802.93,285.41,870.07Z"/><path class="cls-5" d="M723.35,696.48s-68.81,7.06-107.8,21.17-128.4,5.64-94.41-38.1,59.32-71.95,135.35-63.49S808.61,633,830,652.75,753.18,700.72,723.35,696.48Z"/><path class="cls-5" d="M890.67,633.63c28.77-6.64,77.5,20.71,125.36,43.55s147,6.89,107.08-59.8-70-109.88-165.32-100.89-190.81,18-218.65,46.34S812.48,651.68,890.67,633.63Z"/><path class="cls-4" d="M210.08,1136c-1.14-.21-83.14,27.24-83.14,69.56s76.59,59.37,116.72,48.54,97.59-5.37,126.94,14.45,72.3-46.17,158.29-28.21,123.15,1,173.11-26.39,82.45,21.39,126.61,12,68.4-76.59,6.33-98.48-301.39-47.9-345.54-43.58S210.08,1136,210.08,1136Z"/><path class="cls-5" d="M14.17,1171.18s29.37,22.76,71.06,16.18,71.62-20.65,110.72-6.88,127.77,22,196.16-5.61,138.2-50.26,213.56-26.22,115.85,40.68,171.68,22.53,87.22,39.06,151.09,9.3,21.78-74.88-27.67-84.14-126.21-69.4-215.54-55.52-170.9-24.13-256.31-5.78-130.33,46.27-216.87,39.33S-51.12,1119.93,14.17,1171.18Z"/></g><path class="cls-11" d="M1463.92,1851.62H390.9a3.14,3.14,0,0,1-.25-1.23v-1.7a3.17,3.17,0,0,1,3.16-3.16h67.5a2.86,2.86,0,0,1-.22-.76c-.47-1.08-100.53-163.36-111.51-374.92,48-7.42,146.37-13.06,249.38,37.63,144.54,71.12,100.95,179,185.84,190.43s224.84-50.48,337.27,36.71c110.23,85.48,368.38,13.2,406.09,112,.47,1.2-65.41,1.37-65,2.62C1463.42,1850,1463.68,1850.79,1463.92,1851.62Z"/><path class="cls-8" d="M3022.12,1576.16c-11.52,151.53-86.93,248.8-103.21,269.37-1.86,2.35-2.95,3.69-3.08,4-53.68,0-355.44.07-730.09,0l.89-3.92s94.07-90.35,206.49-72,182.87,43.59,233.69,9.18,112.75-87.19,193.06-50.48C2888.37,1763.63,2926.83,1586.21,3022.12,1576.16Z"/><path class="cls-11" d="M3018.08,1460.78c-71.36,23.51-117-46.55-174.65-23.84-65.39,25.76-216.82,53.4-283.09-87.93s135.72-232.57,124.78-254.37-70.54-32.74-58.31-96.64c5.37-28,19.35-49.38,33.38-64.5,72.73,81.62,195.63,165.51,254,258.68C2975.84,1290.47,3006.59,1380.71,3018.08,1460.78Z"/><path class="cls-12" d="M2273.6,1708.65s38.66,62.69,81.61,80.13c0,0,28.68-7.72,31.27,2.61s-13.76,23.26-33.47,20.11-104.84-45.2-107.66-51S2273.6,1708.65,2273.6,1708.65Z"/><path class="cls-12" d="M2092.23,1736.36s-65.76,25.39-128.82-12c0,0-8.63-8.59-15.43-7.54s-39.67,15.81-48.11,3,11.1-21.6,20.63-22.67,30.55-15.06,35.17-14.45,36.4.71,46.49-13.67,42.4-36.2,75.19-9.54S2092.23,1736.36,2092.23,1736.36Z"/><path class="cls-13" d="M2309,1601.91s-67.83,49.85-108.77,26.21,10-50.31,33.77-49.81S2323.31,1574.26,2309,1601.91Z"/><path class="cls-14" d="M2332.08,1672.06s-27,8.68-39.56,29.59c-10.43,17.39-17.88,55.06-43.35,67.76s-102.08-28.09-133.77-25-125.59-26.07-117.66-58.07c9.16-37,36.63-76.89,112.69-54,62.45,18.77,195.48-9.66,195.48-9.66Z"/><path class="cls-14" d="M2301.7,1579s27.89,4.37,38.45,20.75,48,10.89,49.91,26.25-7.4,44.74-46,46.65-65.84-1.93-74.61-21.64S2278.77,1571.33,2301.7,1579Z"/><path class="cls-14" d="M2289.49,1837.07c-.75,7.5-10.14,9.35-20.15,8.87a81.1,81.1,0,0,1-21.57-4.06c-9.94-3.68-69-94.72-69-94.72l50.27-43s31.15,106.19,37.32,113.53c1.68,2,4.25,3.32,7.1,4.46a0,0,0,0,0,0,0C2281.08,1825.27,2290.48,1827.07,2289.49,1837.07Z"/><path class="cls-14" d="M2103.52,1717.68s-43,55.85-116.33,56.63c0,0-11.84-2.86-17.1,1.56s-25.69,34.11-39.59,27.5-1.72-24.22,5.87-30.08,18.29-28.73,22.56-30.61,31.47-18.3,32.64-35.82,17.44-52.95,59.3-47.19S2103.52,1717.68,2103.52,1717.68Z"/><path class="cls-14" d="M2079.23,1626.06s-77.83-5.39-99.41-27.79c-26.51-27.52-6.22-52.3-6.22-52.3a42.87,42.87,0,0,0-33.5,24.65c-12.67,27.13,10.42,95,79.81,87.44Z"/><path class="cls-15" d="M2298.31,1693.82s-38.06-15.36-59.38-62.3c0,0-17-.35-19.7,4.31,0,0,23.75,55.2,69.67,72.8C2288.9,1708.63,2302,1707.55,2298.31,1693.82Z"/><path class="cls-16" d="M2302.84,1607.32s-32.36,77.71-79.62,78.6-17.43-48.24,3.21-60.09S2300.86,1576.22,2302.84,1607.32Z"/><path class="cls-17" d="M573.28,1846.67H675.65c5.49-4.65-3.8-15.22-13.5-15.93-4.21-.32-9.53.57-15.62,1.85-1.41-18.71-9.45-102.82-39.77-99.44-34.1,3.78,0,37,9.63,56.73,7.14,14.58,14.67,35.5,18.11,45.37-2.76.6-5.63,1.19-8.56,1.73-4.51-13.88-21.33-60.55-42.71-57.83-25.1,3.19-15,21.9,2.78,33,13.06,8.17,29.09,19.78,36.7,25.39a109,109,0,0,1-20,1.6C585.15,1838.73,576.6,1843.89,573.28,1846.67Z"/><path class="cls-17" d="M2760.39,1847.25H2673c-4.69-4,3.24-13,11.52-13.61,3.6-.27,8.15.48,13.35,1.58,1.2-16,8.07-87.83,34-84.94,29.12,3.23,0,31.64-8.23,48.46-6.1,12.45-12.53,30.32-15.47,38.75,2.36.51,4.81,1,7.31,1.47,3.86-11.85,18.22-51.71,36.48-49.39,21.44,2.72,12.82,18.7-2.37,28.19-11.15,7-24.84,16.89-31.35,21.68a92.54,92.54,0,0,0,17.1,1.37C2750.25,1840.46,2757.56,1844.87,2760.39,1847.25Z"/><path class="cls-18" d="M1822.91,1123.12s20.15-18.92,28.18-17.46,7.45,22.8,0,32.2-25.24,4.3-25.24,4.3Z"/><path class="cls-19" d="M1677.17,509.29h0a6.86,6.86,0,0,0,4.85-8.36l-14.4-54.26a6.86,6.86,0,0,0-8.36-4.85h0a6.84,6.84,0,0,0-4.84,8.35l14.4,54.27A6.85,6.85,0,0,0,1677.17,509.29Z"/><path class="cls-20" d="M1706.67,605.16s310-129.74,576.91,39c0,0-182.87,38.13-259.68,123.31C2023.9,767.47,1866,622.38,1706.67,605.16Z"/><path class="cls-21" d="M2023.9,767.47s-228,35-250.73,92.22l-66.5-254.53S1924.26,629.8,2023.9,767.47Z"/><path class="cls-20" d="M1705.69,605.42s-333.54,41-481.66,319.92c0,0,177.71-57.56,286.65-21.67C1510.68,903.67,1575.82,699.39,1705.69,605.42Z"/><path class="cls-21" d="M1510.68,903.67s215.39-82.64,263.46-44.24l-68.45-254S1528.94,734.71,1510.68,903.67Z"/><path class="cls-19" d="M1849.09,1164.81l3.81-1a4,4,0,0,0,2.82-4.87L1709.64,608.48a4,4,0,0,0-4.86-2.82l-3.81,1a4,4,0,0,0-2.82,4.86L1844.23,1162A4,4,0,0,0,1849.09,1164.81Z"/><path class="cls-22" d="M2283.57,644.16c-1.05-.59-135.19-76.36-262.77-41l0,0c-.5-.78-11.06-17.25-32.45-38.31A324.06,324.06,0,0,0,1842.12,482c-41.3-10.7-90.1-14.82-146.79-6.69,91.41-18.51,172.34-19,242.66-8.93h0a608.31,608.31,0,0,1,154.29,43.16h0C2218.44,563.74,2282.75,643,2283.57,644.16Z"/><path class="cls-22" d="M1640.36,490.76c-45,17.79-80.33,40.23-108,64.53a296.29,296.29,0,0,0-85.66,126.87c-15,43.53-14.84,76.05-14.83,77.24v0C1303.57,792,1224.64,924.31,1224,925.34a.76.76,0,0,0,0-.21c.13-1.08.84-6.13,2.58-14.41a.64.64,0,0,1,0-.09c5.12-24.25,19-76,52.85-136.58a563.59,563.59,0,0,1,95.31-125.41C1435.91,587.91,1521.3,530.08,1640.36,490.76Z"/><path class="cls-23" d="M2020.8,603.15s-313.71-60.52-588.92,156.29c0,0-4.88-49.78,20.91-109,26.88-61.68,87.06-133.58,220.79-170,0,0,158.33-47,268.41,34.56,0,0,4.59,3.2,11.6,8.75C1972.6,538.81,2009.4,571,2020.8,603.15Z"/><path class="cls-15" d="M1876.79,1184.87a38.94,38.94,0,0,1-37.38-28.51l-20.09-72.66a9.75,9.75,0,1,1,18.8-5.2l20.09,72.66a19.35,19.35,0,1,0,37-11.34l-7.46-22.1a9.75,9.75,0,0,1,18.48-6.23l7.46,22.09a38.87,38.87,0,0,1-26.16,49.78A39,39,0,0,1,1876.79,1184.87Z"/><path class="cls-24" d="M1292.24,1470.61s49-36.54,54.28-48.64,27.75-56.39,33.57-60.91c0,0,12.19-1.52,13.94,6.67s-11.61,56.76-20.92,71.43-53.91,64.4-68.55,71.62Z"/><path class="cls-24" d="M1149.31,1642.53s4.61,18,0,25.59-15.1,13-17.2,11.32-.83-13.11,1.68-18.3-3.35-11.48,1.68-18.61S1149.31,1642.53,1149.31,1642.53Z"/><path class="cls-25" d="M1294.26,1406.52s10.74.18,10,9.86c0,0,3.87,1.23,3.35,8.09a8.45,8.45,0,0,1-6.67,7.92s7.72-1.05,10.19,4.58c0,0,12.32-2.29,14.78,6.16s-15.84,25.75-15.84,25.75l-30.21,5.87-14.79-10.56-1.17-31.68Z"/><path class="cls-18" d="M1285.32,1506l-58.8-34.41c.33-.12,1.52-1.84,5.91-14.18a66.74,66.74,0,0,0,3.36-13.44c0-.36.1-.71.13-1a35.68,35.68,0,0,0,.16-8.29l12.88,4.51,23.82,8.37c-.27,5.86.57,10,1.86,12.81,3.11,6.87,8.91,6.91,9.07,6.91Z"/><path class="cls-24" d="M1274.64,1460.34a44.67,44.67,0,0,1-38.85-16.35c-.42-.53-.64-.83-.64-.83l.77-.22,13-3.78,23.82,8.37C1272.51,1453.39,1273.35,1457.51,1274.64,1460.34Z"/><path class="cls-18" d="M1275.79,1452.32s-51.15,5.45-52.2-28.1-8.6-48.89,26.79-51.88,43.75,9.38,45.84,20.73C1302.73,1428.52,1290.21,1450.81,1275.79,1452.32Z"/><path class="cls-25" d="M1253.13,1388.73c-18.1-4.44,0,15.39-8.91,22-9.33,6.86-20.76.22-19.37,6.21s3.39,8.14,4.44,11.88,0,11.15-4.22,9.65-43.35-44.84-15.71-78.6,110.05-13,84.1,22.35C1288.89,1388.39,1266,1391.89,1253.13,1388.73Z"/><path class="cls-25" d="M1235.15,1415.66s9.25,2.22,12,9.31c0,0,7.66-.89,7.88,9.53,0,0,.94,4.89-2.47,8,0,0,8,11.41-.85,17.9S1235.15,1415.66,1235.15,1415.66Z"/><path class="cls-26" d="M1379.7,1845.42c.39-13.32-9.69-16.4-16.28-16.4-3.23,0-8.33-3.23-12.71-6.53l-13.8-61.92c-21.59-.94-58.66,16.42-58.66,16.42l33.68,62.79h0c.14,3.35.42,5.64.42,5.64Z"/><path class="cls-26" d="M1184.62,1748.48l-38.92,74h0c-1.76,3.09-2.69,5.75-1.79,7.12,3.1,4.71,26.37,15.81,26.37,15.81H1204c0-9-9.09-13.65-14-15.53-2.49-1-3.49-5.1-3.87-8.94h0l44.18-48.18S1186.18,1748.84,1184.62,1748.48Z"/><path class="cls-27" d="M1326.37,1578c12.45,61.18,31.1,158.37,34.48,207.49,0,0-15.15,4.14-40.41,7.68a517.1,517.1,0,0,1-71.78,4.95c-51.18,0-83.43-12.74-107.45-33,0,0,4.48-13,10.74-31.15,14.39-41.71,38.2-110.89,38.89-113.49.53-2.06,2.34-9.27,4.88-19.53-24.83,16.71-38.21,60.15-38.21,60.15-19.34-.48-45.4-15.07-45.4-15.07s13.37-54.2,45.4-107c29.81-49.13,63.88-59.46,68.47-60.66,0-.14.07-.27.1-.41a52.49,52.49,0,0,1-8.84-6.43s-51.7-61.7-59.18-88.15a14.34,14.34,0,0,1-.36-6.24h0c3.78-24.57,66.56-48.68,100.24-34.44,0,0-17.91,31.46-18.51,67.93-.37,22.61,5.91,47.14,27.21,67.3h0c13.95-5.83,12.16-12.42,12.16-12.42s33-14.71,48-30.87c17.19-18.5,39.11-51.25,39.11-51.25s28.5,22.41,28.26,26.16c-2.41,37.86-23,66.79-42.65,86A90.21,90.21,0,0,0,1326.37,1578Z"/><path class="cls-28" d="M1607.88,786.27s-51-7.68-75.71,24.45-.84,76.65-42,82.81c-24.22,3.62-37.83,30.2-15.3,63,13.86,20.16-54.44,42.82.55,87.12,63.43,51.09,88-60.51,124.58-47.76s88.41-24,70-46.65c-30.28-37.28,11.15-20.16,8.76-71.63S1642.73,785.07,1607.88,786.27Z"/><path class="cls-15" d="M1420.91,1763.61s-18.89,17.24-15.21,29.49,20.74,20.42,23,35.4,11.52,23.14,19.82,23.14h39.54s6.11-10.54-8.64-13.72-20.3-20.77-19.38-37.1-1.38-38.11-1.38-38.11l-31.34-7.26Z"/><path class="cls-15" d="M1580.82,1772.32s-6.8,73,1.5,77.12l106.15-.22s0-12.25-17-15-47-12.7-52.07-34.94S1580.82,1772.32,1580.82,1772.32Z"/><path class="cls-25" d="M1667.5,1171.5s30.6,95.25,32.57,127.69-83,475.42-85.39,490.36c-2.29,14.09-35.83,0-35.83,0S1555,1484.09,1569.78,1375s14.91-203.47,14.91-203.47Z"/><path class="cls-26" d="M1537.83,1168.66s-46.68,62.63-51,105,12.67,179.08,3.39,220.36-62.83,132.71-62.83,261.46c0,0,27.22,15.54,31.34,7.26,23-46.38,114.64-199,118.4-230,2.66-22,25.83-167.38,76.36-252.7C1665.59,1259.49,1646,1178,1646,1178Z"/><path class="cls-18" d="M1226.41,1471.55l.11.06C1226.43,1471.66,1226.41,1471.55,1226.41,1471.55Z"/><path class="cls-29" d="M1180.39,1338.45c-.71-1.55-1.22-2.56-1.22-2.56A8.11,8.11,0,0,1,1180.39,1338.45Z"/><path class="cls-24" d="M1411.44,1338.68c-.81,4.23-2.59,8.78-4.69,11.13-2.75,3.14-7.12,9.41-9.87,13.49-1.78,2.51-2.91,4.39-2.91,4.39l-13.91-6.58s-.32-22.9,8.9-27.77c.32-.15.48-.31.8-.31a59,59,0,0,1,10.84-4.39c4.37-1.1,7.76-1.26,9.7-.16C1412.08,1329.42,1412.41,1334,1411.44,1338.68Z"/><path class="cls-18" d="M1672.65,1231.92c-31.72-101.42,3-123.47-.26-174.22s-42.59-105.31-42.59-105.31l-4.08-.39a3.16,3.16,0,0,1-2.65-2c-1.55-3.87-2-12.85-2-22.23,0-14,1.11-28.8,1.11-28.8l-47.12-9.33-2.81-.55c.12,32.8-8.51,54.33-14.77,59.35-5.89.67-16.55,9.15-32,15.62-5.83,2.43-14.69,6.53-16.25,9.94-12.94,28.45-35.89,93.75-45,145-5.06,28.55-8.92,50.71-10.93,55.41-5.62,13.1-22.78,85.19-37.45,120.76l13.3,16.34s67.21-113.24,72.83-139.91c1.84-8.68,6.33-26.06,11.57-45.53q1.18-4.42,2.42-9c9.26,25.1,14,36.72,13.73,47.57-.37,15.44-10.83,29.31-32.71,78.37C1484.93,1270.18,1705.05,1335.49,1672.65,1231.92Z"/><path class="cls-30" d="M1622.2,906.48a205.42,205.42,0,0,0-1.11,22.52c-26.36-.74-40.3-18.51-46-31.85Z"/><path class="cls-28" d="M1570.21,892s-13.82-21.83-17.14-40.5c-2.36-13.33,4.43-62.74,54.07-55.62a67.51,67.51,0,0,1,28,10.57c10.78,7.28,26.34,23,8.94,66.12l-4.52,14.56Z"/><path class="cls-18" d="M1631,919.71s-62.38,1-62.43-37.83-8.12-64.9,31.71-67.2,47.59,12.52,50.76,25.49S1647.23,918.44,1631,919.71Z"/><g class="cls-31"><path class="cls-32" d="M1326.37,1578c12.45,61.18,31.1,158.37,34.48,207.49,0,0-15.15,4.14-40.41,7.68,0,0-39.73-134.44-30.26-183.64s38.1-68.19,23.26-86.31,57.7-46.86,38.1-27.61A90.21,90.21,0,0,0,1326.37,1578Z"/></g><path class="cls-28" d="M1649.18,818.56c-9.63-11.67-16.91-9.14-21-5.63-33.45-18.55-56.1,9-56.1,9-4.17,27.88-24.28,43.86-24.28,43.86s11.37,7,37.59.28c8-2.06,15.15-7.74,21.22-14.63a145.57,145.57,0,0,1-25,30.57c31.32-14.47,43.89-58,45.14-62.63,3.81,3.42,11.32,10.85,13.61,18.13,3.11,9.9,4.51,30.27,10.45,29.58C1650.78,867.08,1663.64,836.09,1649.18,818.56Z"/><path class="cls-18" d="M1417.42,1291.83s-5.69,13.42-11.62,17.17-9.64,11.55-8.08,18.73-1.6,19.65,5.89,19.65,25-33.08,27.15-39.32,4.06-7.49,4.06-7.49Z"/><path class="cls-14" d="M1704.26,1403.88c-6.64,49.23-237.35,11-244.53-11.69-6.21-19.64.46-42.9,8-78.54h0c2.59-12.23,5.29-25.92,7.61-41.42-6.94,1.91-33.65,13.41-59.26-1,10.56-52.69,58.79-244.87,83.38-295.65,11.85-24.47,58-27.09,58-27.09s12.94,14.53,19.43,18.68c25.52,16.34,41.15,14.05,47.54,4.59a20.49,20.49,0,0,0,1.43-19.77,36.35,36.35,0,0,1,3.91.38c9.28,1.25,15.83,2.2,20.56,3,9.25,1.62,11.56,2.75,13.87,4.55,8.13,8.32,18.71,29,19.56,65.78a261.35,261.35,0,0,1-3.68,47.9C1681.31,1125.3,1711.56,1349.74,1704.26,1403.88Z"/><path class="cls-2" d="M1613.08,896.77s1.18,4.78,13.11,3.9c0,0,10-.74,9.65-6C1635.84,894.66,1626.07,891,1613.08,896.77Z"/><path class="cls-18" d="M1428,1305.19s3.43,14.85.93,19.52-.81,10.73-5.82,9S1428,1305.19,1428,1305.19Z"/><path class="cls-15" d="M1621,1804.33l29.89-170.48s-17.37-12.67-92.93,0l21,205.93Z"/><path class="cls-15" d="M1460.29,1792.66l73.5-153.44s-26-38-88.7-40.58c0,0-17.73,78.82-17.73,117.81s-17.24,59.94-17.24,59.94Z"/><path class="cls-28" d="M1614.56,1076.15a5,5,0,1,1,5,4.95A5,5,0,0,1,1614.56,1076.15Z"/><path class="cls-28" d="M1617.25,1173.07a5,5,0,1,1,5,5A5,5,0,0,1,1617.25,1173.07Z"/><path class="cls-28" d="M1617.53,1284.33a5,5,0,1,1,5,4.94A4.94,4.94,0,0,1,1617.53,1284.33Z"/><g class="cls-31"><path class="cls-32" d="M1191.89,1666.23c.93,21.6-39.94,67.76-39.94,67.76,14.39-41.71,38.2-110.89,38.89-113.49.53-2.06,2.34-9.27,4.88-19.53l0,0s12.35-12.85,17.5-4.87S1191,1644.64,1191.89,1666.23Z"/></g><path class="cls-26" d="M1285.32,1535a4.87,4.87,0,1,1,4.87,4.86A4.87,4.87,0,0,1,1285.32,1535Z"/><path class="cls-26" d="M1285.32,1609.51a4.87,4.87,0,1,1,4.87,4.87A4.87,4.87,0,0,1,1285.32,1609.51Z"/><circle class="cls-26" cx="1297.99" cy="1705.38" r="4.86"/><g class="cls-31"><path class="cls-32" d="M1249.07,1480.54a146.38,146.38,0,0,1-23-2.56,52.49,52.49,0,0,1-8.84-6.43s-51.7-61.7-59.18-88.15a14.34,14.34,0,0,1-.36-6.24c.54.83,21.27,32.34,81.73,33.48-.24,14.72,2.87,38.77,11,53.78C1254.44,1471.81,1257.46,1480.72,1249.07,1480.54Z"/></g><path class="cls-14" d="M1824.34,1183.22s-13.75,5.71-39.93,11.72c-10,2.29-21.73,4.63-35.24,6.71-23.2,3.58-44.19-12.31-59.86-30l-.1-.13a214.17,214.17,0,0,1-28-41.38v-172s27.6,10.22,44.24,37.18,34.22,120,42.25,122.13,73-9,73-9S1841.34,1130.63,1824.34,1183.22Z"/><path class="cls-18" d="M1851.09,1105.66s-6.31-2.76-9.75,4.7-1.72,12.14,3.63,14.2,8.6-.82,8.6-.82Z"/><path class="cls-12" d="M1784.41,1194.94c-10,2.29-21.73,4.63-35.24,6.71-23.2,3.58-44.19-12.31-59.86-30l-.1-.13s-8-88.46,0-95.35S1703,1159,1723,1171.5,1782.18,1173.77,1784.41,1194.94Z"/><path class="cls-12" d="M1520.13,1238.17c-16.06,26.1-13.58,64.41-52.38,75.48,2.59-12.23,5.29-25.92,7.61-41.42,0,0,38.58-111.71,39.61-133.41s12.62-16.8,13.77-5.61S1536.19,1212.06,1520.13,1238.17Z"/><path class="cls-33" d="M1609.83,979.13s-38.13-28.77-40.59-57.84c0,0-30.91.45-31.21,30.23C1538,951.52,1574.48,988.8,1609.83,979.13Z"/><path class="cls-33" d="M1609.83,979.13s11.61-32.62,11.28-47.34c0,0,18.45,7.94,19.25,22C1640.36,953.82,1640.25,980.6,1609.83,979.13Z"/><path class="cls-28" d="M1604.88,979.18a4.95,4.95,0,1,1,4.95,5A4.94,4.94,0,0,1,1604.88,979.18Z"/><path class="cls-25" d="M2976.11,1848.69v1.7a3.18,3.18,0,0,1-3.17,3.17H393.81a3.18,3.18,0,0,1-2.91-1.94,3.14,3.14,0,0,1-.25-1.23v-1.7a3.17,3.17,0,0,1,3.16-3.16H2972.94A3.17,3.17,0,0,1,2976.11,1848.69Z"/><path class="cls-34" d="M2239.26,1108.1c3.85-9.13,32-29.82,32-29.82s4.89,34.63,1,43.76a18,18,0,1,1-33.09-13.94Z"/><path class="cls-34" d="M2467.14,859.18c3.85-9.14,32.05-29.82,32.05-29.82s4.89,34.62,1,43.76a18,18,0,0,1-33.09-13.94Z"/><path class="cls-34" d="M2118.71,976.68c3.85-9.13,32.05-29.82,32.05-29.82s4.88,34.63,1,43.76a18,18,0,1,1-33.09-13.94Z"/><path class="cls-34" d="M1174.92,519.1c3.85-9.14,32-29.82,32-29.82s4.89,34.63,1,43.76a17.95,17.95,0,1,1-33.08-13.94Z"/><path class="cls-34" d="M1934.91,1064.06c3.85-9.14,32-29.82,32-29.82s4.89,34.62,1,43.76a18,18,0,0,1-33.09-13.94Z"/><path class="cls-34" d="M2398.69,986.58c3.85-9.14,32-29.82,32-29.82s4.89,34.63,1,43.76a18,18,0,1,1-33.09-13.94Z"/><path class="cls-34" d="M1915.29,1494.64c3.85-9.13,32-29.82,32-29.82s4.89,34.63,1,43.76a17.95,17.95,0,1,1-33.08-13.94Z"/><path class="cls-34" d="M1902,1363.35c3.85-9.14,32-29.82,32-29.82s4.89,34.62,1,43.76a18,18,0,0,1-33.09-13.94Z"/><path class="cls-34" d="M2007.44,1461.85c3.85-9.13,32-29.82,32-29.82s4.89,34.63,1,43.76a18,18,0,1,1-33.09-13.94Z"/><path class="cls-34" d="M2221.27,1402.89c3.85-9.14,32.05-29.82,32.05-29.82s4.89,34.63,1,43.76a18,18,0,1,1-33.09-13.94Z"/><path class="cls-34" d="M2297.7,1479.32c3.85-9.14,32-29.82,32-29.82s4.89,34.62,1,43.76a17.95,17.95,0,1,1-33.08-13.94Z"/><path class="cls-34" d="M1565.5,560c3.85-9.14,32-29.82,32-29.82s4.89,34.62,1,43.76A18,18,0,0,1,1565.5,560Z"/><path class="cls-34" d="M1933.27,546.48c3.86-9.14,32-29.83,32-29.83s4.89,34.63,1,43.77a18,18,0,0,1-33.09-13.94Z"/><path class="cls-34" d="M1723.81,364.12c3.85-9.14,32-29.82,32-29.82s4.89,34.62,1,43.76a18,18,0,0,1-33.09-13.94Z"/><path class="cls-34" d="M1747.51,469.45c3.85-9.14,32-29.82,32-29.82s4.89,34.62,1,43.76a18,18,0,0,1-33.09-13.94Z"/><path class="cls-34" d="M2328,731.94c3.85-9.14,32-29.82,32-29.82s4.89,34.62,1,43.76A17.95,17.95,0,1,1,2328,731.94Z"/><path class="cls-34" d="M2456.42,522.29c3.86-9.13,32-29.82,32-29.82s4.89,34.63,1,43.76a18,18,0,1,1-33.09-13.94Z"/><path class="cls-34" d="M2477.86,638.17c3.85-9.14,32-29.82,32-29.82s4.89,34.63,1,43.76a18,18,0,1,1-33.09-13.94Z"/><path class="cls-34" d="M1343,1014c3.85-9.14,32-29.83,32-29.83s4.89,34.63,1,43.77A18,18,0,0,1,1343,1014Z"/><path class="cls-34" d="M1350,734.87c3.85-9.13,32-29.82,32-29.82s4.89,34.63,1,43.76A18,18,0,1,1,1350,734.87Z"/><path class="cls-34" d="M1814.46,737.32c3.85-9.13,32-29.82,32-29.82s4.89,34.63,1,43.77a18,18,0,1,1-33.09-13.95Z"/><path class="cls-34" d="M1012,1259c3.85-9.14,32-29.82,32-29.82s4.89,34.62,1,43.76A18,18,0,0,1,1012,1259Z"/><path class="cls-34" d="M976,1032.86c3.85-9.14,32-29.82,32-29.82s4.89,34.62,1,43.76A17.95,17.95,0,1,1,976,1032.86Z"/><path class="cls-34" d="M1044.22,1118.22c3.84-9.13,32-29.82,32-29.82s4.89,34.63,1,43.77a18,18,0,1,1-33.08-14Z"/><path class="cls-34" d="M976,1463.2c3.85-9.13,32-29.82,32-29.82s4.89,34.63,1,43.76A17.95,17.95,0,1,1,976,1463.2Z"/><path class="cls-34" d="M884,1243.46c3.85-9.14,32.05-29.82,32.05-29.82s4.89,34.62,1,43.76A18,18,0,0,1,884,1243.46Z"/><path class="cls-34" d="M1044.22,1327.88c3.84-9.13,32-29.82,32-29.82s4.89,34.63,1,43.76a17.95,17.95,0,1,1-33.08-13.94Z"/></svg>