<svg xmlns="http://www.w3.org/2000/svg" xmlns:xlink="http://www.w3.org/1999/xlink" viewBox="0 0 3710 3710"><defs><style>.cls-1{isolation:isolate;}.cls-11,.cls-12,.cls-2,.cls-5,.cls-8{fill:#fff;}.cls-3{fill:url(#linear-gradient);}.cls-4{fill:#91b3fa;}.cls-5{opacity:0.19;}.cls-6{opacity:0.68;}.cls-7,.cls-8{mix-blend-mode:soft-light;}.cls-9{fill:url(#linear-gradient-2);}.cls-10{fill:url(#linear-gradient-3);}.cls-11{opacity:0.12;}.cls-12{opacity:0.65;}.cls-13{fill:#bdd0fb;}.cls-14{fill:url(#linear-gradient-4);}.cls-15{fill:url(#linear-gradient-5);}.cls-16{fill:url(#linear-gradient-6);}.cls-17{fill:url(#linear-gradient-7);}.cls-18{fill:url(#linear-gradient-8);}.cls-19{fill:#7d97f4;}.cls-20{fill:url(#linear-gradient-9);}.cls-21{fill:url(#linear-gradient-10);}.cls-22{fill:url(#linear-gradient-11);}.cls-23{fill:url(#linear-gradient-12);}.cls-24{fill:url(#linear-gradient-13);}.cls-25{fill:url(#linear-gradient-14);}.cls-26{fill:url(#linear-gradient-15);}.cls-27{fill:url(#linear-gradient-16);}.cls-28{fill:url(#linear-gradient-17);}.cls-29{fill:url(#linear-gradient-18);}.cls-30{fill:url(#linear-gradient-19);}.cls-31{fill:url(#linear-gradient-20);}.cls-32{fill:url(#linear-gradient-21);}.cls-33{fill:url(#linear-gradient-22);}</style><linearGradient id="linear-gradient" x1="3513.22" y1="3695.54" x2="1531.85" y2="1586.34" gradientUnits="userSpaceOnUse"><stop offset="0" stop-color="#dae3fe"/><stop offset="1" stop-color="#e9effd"/></linearGradient><linearGradient id="linear-gradient-2" x1="701.49" y1="2261.58" x2="3249.87" y2="2261.58" gradientUnits="userSpaceOnUse"><stop offset="0" stop-color="#09005d"/><stop offset="1" stop-color="#1a0f91"/></linearGradient><linearGradient id="linear-gradient-3" x1="2026.53" y1="1615.56" x2="1850.41" y2="3315.8" gradientUnits="userSpaceOnUse"><stop offset="0" stop-color="#4f52ff"/><stop offset="1" stop-color="#4042e2"/></linearGradient><linearGradient id="linear-gradient-4" x1="2989.7" y1="2679.27" x2="2954.63" y2="3012.39" gradientUnits="userSpaceOnUse"><stop offset="0" stop-color="#febbba"/><stop offset="1" stop-color="#ff928e"/></linearGradient><linearGradient id="linear-gradient-5" x1="2979.49" y1="2376.88" x2="2890.23" y2="2910.83" xlink:href="#linear-gradient-4"/><linearGradient id="linear-gradient-6" x1="2763.11" y1="2576.03" x2="2793.97" y2="2646.25" gradientTransform="translate(-113.92 236.53) rotate(-4.92)" xlink:href="#linear-gradient-4"/><linearGradient id="linear-gradient-7" x1="2637.28" y1="3149.31" x2="2563.76" y2="3241.75" xlink:href="#linear-gradient-2"/><linearGradient id="linear-gradient-8" x1="2630.05" y1="3148.79" x2="2647.43" y2="3188.33" xlink:href="#linear-gradient-4"/><linearGradient id="linear-gradient-9" x1="2451.88" y1="3155.39" x2="2472.02" y2="3201.22" xlink:href="#linear-gradient-4"/><linearGradient id="linear-gradient-10" x1="3220.47" y1="3137.9" x2="3271.38" y2="3253.73" gradientTransform="matrix(-0.92, 0.39, 0.39, 0.92, 4851.54, -1506.03)" xlink:href="#linear-gradient-4"/><linearGradient id="linear-gradient-11" x1="1961.65" y1="2025.62" x2="2035.41" y2="2193.46" gradientTransform="matrix(-0.95, -0.31, -0.31, 0.95, 5534.47, 1195.64)" xlink:href="#linear-gradient-4"/><linearGradient id="linear-gradient-12" x1="1955.58" y1="1813.41" x2="2003.53" y2="2086.9" gradientTransform="matrix(-0.95, -0.31, -0.31, 0.95, 5534.47, 1195.64)" xlink:href="#linear-gradient-2"/><linearGradient id="linear-gradient-13" x1="1921.03" y1="2041.01" x2="1944.66" y2="2094.77" gradientTransform="matrix(-0.95, -0.31, -0.31, 0.95, 5534.47, 1195.64)" xlink:href="#linear-gradient-4"/><linearGradient id="linear-gradient-14" x1="2909.76" y1="2759.58" x2="2976.7" y2="3201.09" xlink:href="#linear-gradient-4"/><linearGradient id="linear-gradient-15" x1="3565.67" y1="2539.02" x2="3399.71" y2="2667.73" gradientUnits="userSpaceOnUse"><stop offset="0" stop-color="#ff928e"/><stop offset="1" stop-color="#fe7062"/></linearGradient><linearGradient id="linear-gradient-16" x1="2394.96" y1="3154.33" x2="2419.99" y2="3242.12" xlink:href="#linear-gradient-2"/><linearGradient id="linear-gradient-17" x1="3020.09" y1="2003.69" x2="3118.92" y2="2963.21" gradientUnits="userSpaceOnUse"><stop offset="0" stop-color="#e1473d"/><stop offset="1" stop-color="#e9605a"/></linearGradient><linearGradient id="linear-gradient-18" x1="3078.81" y1="2472.12" x2="2870.98" y2="2765.35" gradientTransform="matrix(-0.92, 0.4, 0.4, 0.92, 4583.53, -959.32)" xlink:href="#linear-gradient-2"/><linearGradient id="linear-gradient-19" x1="2774.46" y1="4426.83" x2="2760.24" y2="4446.89" gradientTransform="matrix(-0.98, 0.21, 0.11, 0.51, 5051.75, -330.12)" gradientUnits="userSpaceOnUse"><stop offset="0" stop-color="#8d55d1"/><stop offset="1" stop-color="#1c2873"/></linearGradient><linearGradient id="linear-gradient-20" x1="2832.1" y1="2771.35" x2="2899.04" y2="3212.86" xlink:href="#linear-gradient-4"/><linearGradient id="linear-gradient-21" x1="2996.89" y1="2006.08" x2="3095.71" y2="2965.6" xlink:href="#linear-gradient-17"/><linearGradient id="linear-gradient-22" x1="2891.69" y1="2626.31" x2="2912.63" y2="2626.31" xlink:href="#linear-gradient-4"/></defs><g class="cls-1"><g id="Background"><rect class="cls-2" width="3710" height="3710"/></g><g id="Illustration"><path class="cls-3" d="M2918.31,2849.34c-73.14,75.39-138.59,119.71-188.69,153.17-488.7,326.31-1047.34,232.26-1220,200.11-278.66-51.86-513.88-88.45-716-271-459.23-414.89-436.9-1280.4-86-1816.54,41.61-63.57,392-582.94,951.83-656.13,13.69-1.79,23.91-2.8,32.86-3.75,86.61-9.17,623.29-57.57,1060.9,309.06,62.64,52.48,163.45,147.15,256.93,291.52C3351.94,1583.65,3353,2401.26,2918.31,2849.34Z"/><ellipse class="cls-4" cx="1438.4" cy="1518.59" rx="893.88" ry="964.86" transform="translate(-141.81 2889.01) rotate(-87.49)"/><ellipse class="cls-5" cx="1386.18" cy="1454.1" rx="757.11" ry="715.23"/><g class="cls-6"><g class="cls-7"><path class="cls-2" d="M1685.46,1522.91s.06,14.78-.31,42.52-1.27,68.39-4,120.09-7.28,114.42-16.16,186-21.62,152.1-43.43,238.28c-11,43-24.26,87.5-42.12,132.1a561.78,561.78,0,0,1-31.38,66.23c-12.3,21.58-26.53,42.88-45.27,60.91-9.38,8.94-20,17-32.19,22.59a75.48,75.48,0,0,1-39.57,6.87c-13.65-1.33-26.65-6.73-38-14.18s-21.35-16.85-30.28-27c-17.86-20.47-32-44-44.31-68.42a679.09,679.09,0,0,1-32.2-76.25c-18.7-52.4-33.07-107.14-45-163s-21.21-113-28.57-170.77c-14.68-115.59-21.64-233.92-22.32-352.26-.1-59.16,1.91-118.3,5.1-177.14s8.12-117.35,14.78-175.2,15.17-115,26.13-171.09,24.35-111,42-163.67A677.08,677.08,0,0,1,1309,762.76c11.87-24.59,25.45-48.34,42.91-68.94,8.74-10.23,18.51-19.68,29.75-27.09s24-12.66,37.39-13.86a81.36,81.36,0,0,1,10-.23,83.65,83.65,0,0,1,10,1.11,82.59,82.59,0,0,1,18.87,5.9c12,5.39,22.66,13.13,32.14,21.79,19,17.45,33.72,38.26,46.53,59.45a551,551,0,0,1,33,65.24c19,44,33.26,88.18,45.19,130.94,23.64,85.64,37.7,166,47.61,237.4,4.9,35.72,8.68,69.26,11.62,100.33s4.94,59.66,6.5,85.5c3.07,51.68,4.11,92.36,4.59,120.08S1685.46,1522.91,1685.46,1522.91Zm-12.82,0s.11-14.72-.22-42.33-1.19-68.11-4-119.58c-1.42-25.73-3.36-54.2-6.08-85.14s-6-64.38-10.56-100-10.16-73.39-17.4-113-16-81-27.32-123.72-25-86.66-43.31-130.55a547.69,547.69,0,0,0-31.9-64.94c-12.38-21-26.69-41.69-44.93-58.88-9.12-8.53-19.32-16.12-30.74-21.41s-24-8.06-36.73-6.64-24.71,6.37-35.35,13.61-20.07,16.5-28.49,26.59c-16.79,20.3-29.92,43.86-41.36,68.3a674,674,0,0,0-29.4,76.4c-16.88,52.51-29.49,107.32-39.78,163.19s-18,112.95-24,170.63c-11.95,115.39-16.38,233.33-16,351.15-.33,117.79,5.61,235.68,19.24,350.84,6.84,57.57,15.64,114.45,27,170.1s25.21,110.1,43.29,162.14a671.06,671.06,0,0,0,31.15,75.56c12,24.12,25.59,47.28,42.65,67.16,8.53,9.88,18,18.91,28.58,26s22.43,12.06,34.76,13.37,24.78-1.26,35.91-6.51,21.15-12.9,30-21.52c17.75-17.36,31.51-38.25,43.37-59.52a551.57,551.57,0,0,0,30.33-65.5c17.26-44.22,30-88.47,40.59-131.3s18.61-84.41,25.3-124.09,11.85-77.54,16-113.19,7.25-69.11,9.7-100.07,4.29-59.45,5.61-85.19c2.61-51.48,3.42-92,3.78-119.6S1672.64,1522.9,1672.64,1522.9Z"/></g><g class="cls-7"><path class="cls-2" d="M2083.26,1523.05s-.1,4.73-.29,13.9c-.1,4.58-.22,10.28-.36,17s-.2,14.58-.86,23.55-1.13,18.93-1.78,29.92-2.14,22.87-3.32,35.77-3.18,26.67-5.16,41.39c-1.76,14.74-4.81,30.23-7.66,46.66-.76,4.1-1.41,8.27-2.27,12.46s-1.83,8.42-2.76,12.71q-2.81,12.85-5.74,26.36-3.45,13.38-7,27.38-1.82,7-3.67,14.14-2.11,7.07-4.29,14.29c-11.15,38.62-26.17,79.52-45,122a921.48,921.48,0,0,1-70.38,129.93A804.26,804.26,0,0,1,1820,2218a664,664,0,0,1-140.79,108.53c-6.53,4.11-13.55,7.41-20.42,11l-10.37,5.37-5.21,2.68c-1.74.88-3.56,1.61-5.34,2.43l-21.57,9.56c-1.81.78-3.6,1.64-5.44,2.36l-5.57,2.07-11.16,4.15c-14.78,6-30.34,10-45.75,14.82-7.84,1.94-15.76,3.71-23.67,5.58-4,.87-7.91,2-11.93,2.66l-12.1,2-12.14,2c-4,.69-8.11,1.4-12.23,1.69l-24.7,2.43c-4.12.53-8.28.53-12.44.68l-12.5.4-12.54.39c-4.4,0-8.39-.21-12.62-.31-8.35-.32-16.7-.35-25.12-.92l-25.41-2.47-6.37-.63-6.31-1-12.64-2.08-12.68-2.09c-4.23-.75-8.38-1.87-12.58-2.8-33.7-7-66.79-18.37-99-32.31l-12.06-5.33-6-2.68-5.88-3L1153.88,2331c-15.26-9-30.83-17.67-45.45-28-7.42-5-15-9.8-22-15.34s-14.45-10.67-21.54-16.23l-20.8-17.34-5.2-4.36-5-4.61-10-9.23-10-9.25c-3.28-3.15-6.39-6.47-9.6-9.71-6.31-6.55-12.87-12.92-19-19.67L967,2176.77c-3.11-3.38-6-6.94-8.86-10.53l-8.65-10.73-8.67-10.75c-2.86-3.61-5.49-7.4-8.25-11.09-5.42-7.46-11-14.84-16.32-22.4-10.22-15.42-20.82-30.67-30.15-46.77-9.93-15.74-18.55-32.29-27.59-48.65-4.32-8.29-8.34-16.73-12.53-25.11l-6.22-12.61-5.71-12.85c-3.77-8.6-7.7-17.14-11.35-25.8l-10.4-26.26c-3.61-8.7-6.6-17.64-9.73-26.55l-4.68-13.36c-1.55-4.46-3.17-8.9-4.48-13.45-5.52-18.07-11.25-36.13-15.74-54.55l-3.59-13.76-1.79-6.88-1.55-7-6.1-27.82-1.52-7-1.27-7-2.51-14-2.51-14.05c-.87-4.68-1.69-9.36-2.27-14.08-2.52-18.86-5.44-37.69-7-56.69-4.18-37.89-5.31-76-5.9-114.17l.6-28.55.29-14.2c.11-4.73.52-9.54.76-14.3l1.7-28.65c.61-9.53,1.77-19,2.63-28.47,1.55-19,4.48-37.82,7-56.67.58-4.73,1.4-9.41,2.27-14.09l2.53-14,2.52-14,1.27-7,1.53-7,6.13-27.81,1.54-6.94,1.8-6.89,3.6-13.75c4.5-18.42,10.24-36.47,15.78-54.53,1.31-4.54,2.94-9,4.5-13.43l4.69-13.36c3.13-8.9,6.12-17.84,9.75-26.54L823,1106.46c3.66-8.66,7.59-17.19,11.37-25.77l5.72-12.85,6.23-12.6c4.2-8.37,8.22-16.81,12.55-25.09,9-16.35,17.67-32.87,27.61-48.6,9.35-16.09,20-31.32,30.18-46.72,5.32-7.56,10.9-14.92,16.32-22.38,2.76-3.69,5.39-7.47,8.25-11.08l8.67-10.73,8.66-10.72c2.86-3.59,5.75-7.14,8.86-10.51l18.24-20.51c6.15-6.74,12.71-13.1,19-19.65,3.21-3.23,6.32-6.54,9.6-9.69l10-9.23,10-9.22,5-4.6,5.2-4.36,20.79-17.3c7.08-5.55,14.38-10.8,21.53-16.2s14.61-10.35,22-15.31c14.62-10.26,30.19-18.91,45.44-27.87l23.56-12.1,5.87-3,6-2.66,12-5.31c32.17-13.84,65.19-25.19,98.83-32.25s67.39-11.91,101-12.11c4.23-.09,8.29-.33,12.64-.31l12.46.4,12.41.4c4.14.16,8.26.16,12.4.69l24.72,2.45c4.13.3,8.17,1,12.22,1.71l12.12,2,12.08,2c4,.69,7.94,1.79,11.9,2.67,7.91,1.87,15.81,3.64,23.63,5.59,15.39,4.8,30.91,8.87,45.67,14.8l11.16,4.13,5.56,2.06c1.84.72,3.62,1.57,5.43,2.35l21.55,9.52c1.78.8,3.6,1.54,5.34,2.41l5.2,2.67,10.37,5.34c6.87,3.61,13.88,6.9,20.4,11a660.67,660.67,0,0,1,140.75,108.3,804.08,804.08,0,0,1,102.74,127.32,921.77,921.77,0,0,1,70.46,129.82c18.81,42.42,33.87,83.31,45,121.9q2.16,7.21,4.29,14.29,1.86,7.14,3.68,14.13,3.6,14,7.06,27.37l5.75,26.35q1.41,6.43,2.78,12.71c.86,4.18,1.52,8.36,2.27,12.46,2.87,16.42,5.93,31.9,7.7,46.65,2,14.71,4.15,28.46,5.2,41.37s2.65,24.8,3.34,35.75,1.26,20.91,1.79,29.82.73,16.8.89,23.61.27,12.54.37,17.15c.2,9.23.3,14,.3,14Zm-14.69-.14s-.08-4.7-.23-13.82c-.08-4.55-.17-10.21-.29-16.93s-.13-14.52-.75-23.32-1-18.64-1.63-29.47-2-22.58-3.11-35.31-3-26.36-4.93-40.9c-1.67-14.58-4.62-29.88-7.37-46.11-.72-4-1.35-8.18-2.18-12.32s-1.77-8.32-2.68-12.56q-2.7-12.72-5.55-26.06l-6.84-27.06q-1.76-6.93-3.55-14-2.07-7-4.18-14.12A964.55,964.55,0,0,0,1982.16,1090a911,911,0,0,0-68.11-129.13,795.21,795.21,0,0,0-100.15-127,639.77,639.77,0,0,0-138.15-108.52c-6.43-4.09-13.35-7.38-20.12-11L1645.4,709l-5.13-2.68c-1.72-.87-3.51-1.6-5.27-2.41l-21.26-9.56c-1.79-.78-3.55-1.64-5.36-2.36l-5.49-2.07-11-4.16c-14.56-6-29.93-10-45.15-14.77-7.74-2-15.55-3.7-23.37-5.57-3.92-.87-7.8-2-11.77-2.66l-11.95-2-12-2c-4-.69-8-1.41-12.07-1.71l-24.33-2.45c-4-.54-8.19-.55-12.32-.71l-12.42-.42L1414,653c-4,0-8.23.25-12.35.36-33.23.3-66.7,5.1-99.86,12.33-33.25,7.06-65.87,18.42-97.55,32.44l-11.87,5.35-5.94,2.67-5.78,3-23.19,12.16c-15,9-30.31,17.67-44.68,27.95-7.29,5-14.67,9.85-21.58,15.41s-14.13,10.72-21,16.29l-20.31,17.38-5.08,4.37-4.86,4.62-9.74,9.24-9.75,9.26c-3.2,3.14-6.23,6.47-9.35,9.7-6.15,6.56-12.54,12.91-18.52,19.65l-17.73,20.5c-3,3.37-5.84,6.92-8.61,10.51l-8.4,10.7-8.42,10.7c-2.77,3.61-5.32,7.38-8,11.06-5.26,7.43-10.66,14.78-15.81,22.31-9.89,15.35-20.15,30.51-29.15,46.52-9.61,15.64-17.89,32.09-26.61,48.33-4.15,8.22-8,16.61-12,24.92l-6,12.51L846.38,1086c-3.61,8.53-7.38,17-10.87,25.58q-4.95,13-9.91,26c-3.46,8.62-6.29,17.48-9.26,26.3l-4.45,13.23c-1.48,4.41-3,8.81-4.25,13.3-5.17,17.91-10.78,35.71-15,53.92l-3.43,13.58-1.72,6.8L786,1271.6l-5.81,27.46-1.45,6.87-1.2,6.92-2.37,13.86-2.37,13.85c-.82,4.61-1.58,9.24-2.13,13.9-2.43,18.59-5.27,37.16-6.73,55.89-.82,9.34-1.93,18.69-2.5,28l-1.58,28c-.22,4.69-.61,9.32-.7,14l-.25,14.2-.5,28.23c.29,75.17,7.32,150.37,21.94,223.81l5.83,27.46,1.47,6.85,1.72,6.8,3.45,13.58c4.27,18.2,9.89,36,15.07,53.89,1.24,4.49,2.78,8.88,4.27,13.29l4.45,13.23c3,8.81,5.81,17.67,9.28,26.28l9.94,26c3.49,8.59,7.27,17,10.88,25.56l5.48,12.75,6,12.49c4,8.3,7.89,16.69,12.05,24.91,8.72,16.22,17,32.65,26.63,48.28,9,16,19.29,31.13,29.17,46.47,5.16,7.52,10.56,14.85,15.82,22.28,2.68,3.68,5.22,7.45,8,11l8.41,10.7,8.41,10.69c2.77,3.58,5.58,7.13,8.61,10.49q8.87,10.26,17.73,20.47c6,6.73,12.37,13.08,18.52,19.63,3.12,3.22,6.15,6.55,9.34,9.69l9.76,9.24,9.73,9.23,4.86,4.61,5.08,4.36,20.3,17.35c6.92,5.56,14.05,10.84,21,16.26s14.28,10.43,21.57,15.38c14.37,10.24,29.67,18.87,44.67,27.84l23.17,12.1,5.78,3,5.94,2.66,11.86,5.32c31.66,13.92,64.21,25.28,97.4,32.38,4.14.94,8.23,2.08,12.38,2.84l12.49,2.12,12.46,2.12,6.22,1.06,6.23.65,24.88,2.56c8.33.61,16.74.69,25.07,1.06,4.12.11,8.46.38,12.37.36l12.38-.43,12.33-.43c4.1-.17,8.21-.18,12.28-.71l24.35-2.49c4.06-.3,8.06-1,12.06-1.71l12-2,11.92-2c4-.7,7.85-1.8,11.76-2.67,7.8-1.87,15.6-3.63,23.32-5.58,15.19-4.8,30.52-8.81,45.08-14.76l11-4.14,5.48-2.06c1.82-.72,3.57-1.57,5.36-2.35l21.25-9.5c1.75-.81,3.54-1.54,5.26-2.41l5.13-2.67,10.22-5.33c6.77-3.6,13.68-6.87,20.11-11a636.46,636.46,0,0,0,138.1-108.29,795,795,0,0,0,100.17-126.89,911.15,911.15,0,0,0,68.19-129,966.05,966.05,0,0,0,43.22-120.85l4.18-14.12c1.2-4.71,2.39-9.36,3.57-14q3.5-13.82,6.85-27,2.85-13.35,5.57-26.06,1.37-6.36,2.69-12.55c.83-4.14,1.46-8.27,2.19-12.32,2.76-16.23,5.72-31.53,7.4-46.1,1.9-14.54,4-28.13,5-40.89s2.52-24.51,3.14-35.3,1.15-20.59,1.65-29.37.65-16.6.77-23.37.22-12.46.3-17c.16-9.17.24-13.9.24-13.9Z"/></g><g class="cls-7"><path class="cls-2" d="M631.59,1176.31l69.12-.71L883,1174.26l257.65-1.12,295.36-.44,295.36.53,135.9.53,121.75.67c75.42.33,138.26,1.13,182.25,1.44l69.12.76a.65.65,0,1,1,0,1.3l-69.12.76c-44,.32-106.83,1.11-182.25,1.44l-121.75.67-135.9.54-295.36.52-295.36-.44L883,1180.31,700.71,1179l-69.12-.71a1,1,0,0,1,0-1.94Z"/></g><g class="cls-7"><path class="cls-2" d="M864.88,839.5l49.08-.72,129.39-1.34,86.44-.6c30.67-.18,63-.52,96.48-.52l209.7-.44,209.7.53c33.46,0,65.81.27,96.48.53l86.44.67c53.54.33,98.16,1.13,129.39,1.44l49.08.76a.65.65,0,0,1,0,1.3l-49.08.76c-31.23.32-75.85,1.11-129.39,1.45l-86.44.66c-30.67.26-63,.51-96.48.54L1436,845l-209.7-.44c-33.46,0-65.81-.34-96.48-.52l-86.44-.59L914,842.14l-49.08-.71a1,1,0,0,1,0-1.93Z"/></g><g class="cls-7"><path class="cls-2" d="M561.7,1513.13l75.14-.71,198.07-1.34,280-1.12,321-.44,321,.52,147.7.54,132.34.66,198.07,1.45,75.14.76a.65.65,0,0,1,0,1.3l-75.14.76L2037,1517l-132.34.67-147.7.53-321,.53-321-.44-280-1.12-198.07-1.34-75.14-.72a1,1,0,0,1-1-1A1,1,0,0,1,561.7,1513.13Z"/></g><g class="cls-7"><path class="cls-2" d="M631.59,1850l69.12-.71L883,1847.89l257.65-1.11,295.36-.44,295.36.52,135.9.54,121.75.66c75.42.34,138.26,1.13,182.25,1.45l69.12.76a.66.66,0,0,1,.65.65.66.66,0,0,1-.65.65l-69.12.76c-44,.31-106.83,1.1-182.25,1.44l-121.75.67-135.9.53-295.36.52-295.36-.43L883,1853.94l-182.25-1.34-69.12-.72a1,1,0,0,1-1-1A1,1,0,0,1,631.59,1850Z"/></g><path class="cls-8" d="M2035.83,2191.12H893.65a3.39,3.39,0,0,1,0-6.77H2035.83a3.39,3.39,0,1,1,0,6.77Z"/></g><path class="cls-9" d="M701.49,1592.61V2845.33c0,103.06,74.1,187.33,167,190,412.83,11.8,1856.71,40.41,2249.7,34,67.55-1.1,122.26-61,124.21-135.85,7.58-291,19.89-990.84-25.66-1315.73-9.59-68.42-61.7-119.59-124.14-121.8-345.9-12.26-1876.51-51.21-2269.32-41.43C755.59,1456.18,701.49,1517.51,701.49,1592.61Z"/><path class="cls-10" d="M772.42,1586.51V2776.68c0,60.17,43.57,109.2,97.85,110.1l2191.43,30c53.82.89,97.93-47.1,98.13-106.75l3.67-1179.54c.14-42.65-30.52-77.6-69-78.64L850.89,1501.63C807.86,1500.47,772.42,1538.81,772.42,1586.51Z"/><path class="cls-11" d="M853.19,1627.1v1078c0,54.49,40.93,98.9,91.91,99.71L3003.42,2832c50.55.81,92-42.65,92.17-96.68L3099,1666.94c.13-38.63-28.66-70.29-64.8-71.23L926.9,1550.21C886.48,1549.16,853.19,1583.89,853.19,1627.1Z"/><path class="cls-12" d="M3176.33,2965.24h-.06l-2403.91-45.4a3,3,0,0,1-3-3.1,3.11,3.11,0,0,1,3.1-3l2403.92,45.4a3,3,0,0,1-.06,6.09Z"/><path class="cls-13" d="M1220.24,2384.66c-73.06-.79-134.89-58.93-140.76-132.36l-13.35-166.81c-3.18-39.79,9.9-78.77,35.88-106.95a129,129,0,0,1,95.71-42l1302.38-2.39c40.78,0,76.4,16.29,100.57,45.88,24.73,30.27,34.06,71.43,25.61,112.93L2590.63,2268c-14.82,72.72-85.64,129.69-161.23,129.69Z"/><path class="cls-4" d="M2500.16,1968.07l-1302.38,2.39c-59.07.11-102.76,51.33-97.89,112.33l13.35,166.81c4.47,55.92,52.42,100.6,107.37,101.19l1207.52,13c59.65.64,117.4-44.14,129.31-102.57l35.65-174.95C2606.13,2022.23,2564.7,1968,2500.16,1968.07Z"/><path class="cls-2" d="M1500.17,2088.32,1440.06,2272h-.24c-2.84,9-9.94,15.38-17.75,17.28h-.23c-.24,0-.71.23-.95.23h-.47c-.24,0-.48.24-.71.24H1414c-.24,0-.48-.24-.71-.24h-.48c-.23,0-.71-.23-.94-.23h-.24c-7.81-1.9-14.91-8.29-18-17.28l-37.87-115.72L1318,2272c-2.84,9-9.94,15.38-17.75,17.28H1300c-.47,0-.71.23-.94.23h-.48c-.23,0-.47.24-.71.24h-5.68c-.23,0-.47-.24-.71-.24H1291c-.47,0-.71-.23-.94-.23h-.24c-8-1.9-14.91-8.29-18-17.28l-60.1-183.63v-.48a28.15,28.15,0,0,1-1.42-8.75c0-10.89,6.39-21.07,16.32-24.61a19.83,19.83,0,0,1,7.34-1.19c10.17,0,19.88,7.1,23.19,18.22.24.48,20.83,63.19,37.86,115.25,17-52.06,37.63-114.77,37.63-115.25a26.44,26.44,0,0,1,14.67-16.56l.24-.24c.24,0,.47-.23.71-.23h.24c.23,0,.23-.24.47-.24h.47a.87.87,0,0,1,.71-.24l.24-.24c.47,0,.71,0,1-.23h.23c.48,0,.71,0,1-.24h1.42c.47,0,.71,0,.94-.24H1357a.87.87,0,0,0,.71.24h1.42a2.13,2.13,0,0,0,1.19.24,1.83,1.83,0,0,0,1,.23c.23,0,.23,0,.23.24.47,0,.71,0,1,.24h.47a.84.84,0,0,0,.48.24h.23c.24,0,.47.23.71.23l.24.24a26.44,26.44,0,0,1,14.67,16.56c0,.48,20.59,63.19,37.63,115.25,17-52.06,37.62-114.77,37.62-115.25,3.55-11.12,13.26-18.22,23.43-18.22a19.83,19.83,0,0,1,7.34,1.19c9.94,3.54,16.32,13.72,16.32,24.61a28.43,28.43,0,0,1-1.41,8.75Z"/><path class="cls-2" d="M1803.33,2088.32,1743.22,2272H1743c-2.84,9-9.94,15.38-17.74,17.28H1725c-.24,0-.71.23-1,.23h-.47c-.24,0-.47.24-.71.24h-5.68c-.24,0-.47-.24-.71-.24H1716c-.24,0-.71-.23-1-.23h-.24c-7.81-1.9-14.91-8.29-18-17.28L1659,2156.23,1621.11,2272c-2.84,9-9.94,15.38-17.75,17.28h-.23c-.48,0-.71.23-1,.23h-.47c-.24,0-.48.24-.71.24h-5.68c-.24,0-.48-.24-.71-.24h-.48c-.47,0-.71-.23-.94-.23H1593c-8-1.9-14.91-8.29-18-17.28l-60.1-183.63v-.48a28.15,28.15,0,0,1-1.42-8.75c0-10.89,6.39-21.07,16.33-24.61a19.74,19.74,0,0,1,7.33-1.19c10.18,0,19.88,7.1,23.19,18.22.24.48,20.83,63.19,37.87,115.25,17-52.06,37.62-114.77,37.62-115.25a26.46,26.46,0,0,1,14.67-16.56l.24-.24c.24,0,.48-.23.71-.23h.24c.24,0,.24-.24.47-.24h.48a.84.84,0,0,1,.7-.24l.24-.24c.48,0,.71,0,1-.23h.24c.47,0,.7,0,.94-.24h1.42c.47,0,.71,0,1-.24h2.13a.85.85,0,0,0,.71.24h1.42a2.1,2.1,0,0,0,1.18.24,1.83,1.83,0,0,0,1,.23c.23,0,.23,0,.23.24.48,0,.71,0,.95.24h.47a.84.84,0,0,0,.48.24h.23c.24,0,.48.23.71.23l.24.24a26.41,26.41,0,0,1,14.67,16.56c0,.48,20.59,63.19,37.63,115.25,17-52.06,37.63-114.77,37.63-115.25,3.55-11.12,13.25-18.22,23.42-18.22a19.83,19.83,0,0,1,7.34,1.19c9.94,3.54,16.33,13.72,16.33,24.61a28.45,28.45,0,0,1-1.42,8.75Z"/><path class="cls-2" d="M2106.49,2088.32,2046.38,2272h-.23c-2.84,9-9.94,15.38-17.75,17.28h-.24c-.24,0-.71.23-1,.23h-.47c-.24,0-.47.24-.71.24h-5.68c-.23,0-.47-.24-.71-.24h-.47c-.24,0-.71-.23-1-.23H2018c-7.81-1.9-14.91-8.29-18-17.28l-37.86-115.72L1924.27,2272c-2.84,9-9.94,15.38-17.74,17.28h-.24c-.48,0-.71.23-1,.23h-.47c-.24,0-.47.24-.71.24h-5.68c-.24,0-.47-.24-.71-.24h-.47c-.48,0-.71-.23-1-.23h-.24c-8-1.9-14.91-8.29-18-17.28L1818,2088.32v-.48a28.15,28.15,0,0,1-1.42-8.75c0-10.89,6.39-21.07,16.33-24.61a19.77,19.77,0,0,1,7.33-1.19c10.18,0,19.88,7.1,23.2,18.22.23.48,20.82,63.19,37.86,115.25,17-52.06,37.62-114.77,37.62-115.25a26.45,26.45,0,0,1,14.68-16.56l.23-.24c.24,0,.48-.23.71-.23h.24c.24,0,.24-.24.47-.24h.48a.85.85,0,0,1,.71-.24l.23-.24c.48,0,.71,0,1-.23h.24c.47,0,.71,0,.94-.24h1.42c.48,0,.71,0,1-.24h2.13a.86.86,0,0,0,.71.24h1.42a2.1,2.1,0,0,0,1.18.24,1.85,1.85,0,0,0,.95.23c.24,0,.24,0,.24.24.47,0,.71,0,.94.24h.48a.8.8,0,0,0,.47.24h.24c.23,0,.47.23.71.23l.23.24a26.41,26.41,0,0,1,14.67,16.56c0,.48,20.59,63.19,37.63,115.25,17-52.06,37.63-114.77,37.63-115.25,3.55-11.12,13.25-18.22,23.43-18.22a19.77,19.77,0,0,1,7.33,1.19c9.94,3.54,16.33,13.72,16.33,24.61a28.15,28.15,0,0,1-1.42,8.75Z"/><path class="cls-2" d="M2170.85,2293.33a10.16,10.16,0,0,1-10.16,10.16h0a10.16,10.16,0,0,1-10.16-10.16V2012.21a10.16,10.16,0,0,1,10.16-10.16h0a10.16,10.16,0,0,1,10.16,10.16Z"/><path class="cls-2" d="M2708.14,2527.28l-151.56-184.9a5.48,5.48,0,0,1,3-8.81l133.87-32.13a13.91,13.91,0,0,0,4.19-25.29l-382-241.4a13.92,13.92,0,0,0-21.16,14l79.41,479.54a13.91,13.91,0,0,0,25.68,4.84l74.1-124.38a5.49,5.49,0,0,1,9-.57l141.15,181a25,25,0,0,0,33.72,5.3l45.3-30.81a25,25,0,0,0,5.26-36.46Z"/><path class="cls-4" d="M3118.63,2107l-187.32-9.74a25.44,25.44,0,0,0-27.07,26.54l4.84,172.27c.4,14.07,12.58,24.83,27,24.11l177.87-8.78c12.06-.6,22-11.29,22.37-24l4.34-154.31C3141.08,2119.38,3131.27,2107.65,3118.63,2107Z"/><path class="cls-2" d="M3088.6,2273H2956.72a20.45,20.45,0,0,1-20.42-20.43V2158a20.45,20.45,0,0,1,20.42-20.43H3088.6A20.46,20.46,0,0,1,3109,2158v94.62A20.46,20.46,0,0,1,3088.6,2273Zm-131.88-118.55a3.5,3.5,0,0,0-3.49,3.5v94.62a3.49,3.49,0,0,0,3.49,3.49H3088.6a3.5,3.5,0,0,0,3.5-3.49V2158a3.5,3.5,0,0,0-3.5-3.5Z"/><path class="cls-2" d="M3021.42,2214.43a8.46,8.46,0,0,1-4.9-1.56L2943,2160.72a8.47,8.47,0,0,1,9.8-13.81l68.64,48.67,67.72-48.1a8.46,8.46,0,1,1,9.8,13.8l-72.62,51.59A8.44,8.44,0,0,1,3021.42,2214.43Z"/><path class="cls-2" d="M2949.21,2274l-2.51-16.75,1.18,8.39-7.13-4.57c1.51-2.43,27.94-48.66,45.34-79.14a8.46,8.46,0,1,1,14.7,8.39s-11.34,19.88-22.71,39.75c-5.69,9.94-11.38,19.89-15.66,27.35C2953.27,2273.35,2953.27,2273.35,2949.21,2274Z"/><path class="cls-2" d="M3093.14,2274c-4-.67-4-.67-13.16-16.58-4.28-7.46-10-17.4-15.66-27.34l-22.71-39.75a8.47,8.47,0,1,1,14.71-8.39c17.39,30.47,43.82,76.69,45.33,79.14l-7.13,4.57Z"/><path class="cls-2" d="M898.5,1371.81a40.62,40.62,0,1,1-11.89-56.21A40.68,40.68,0,0,1,898.5,1371.81Zm-54.59-35.52a24.51,24.51,0,1,0,33.9-7.17A24.53,24.53,0,0,0,843.91,1336.29Z"/><path class="cls-2" d="M791.81,1302.39A86.76,86.76,0,0,1,911.72,1277q3.72,2.43,7.1,5.17a5.91,5.91,0,0,0,9.15-2l5.3-11.6a5.93,5.93,0,0,0-1.85-7.19c-2.1-1.6-4.26-3.14-6.51-4.6a110.7,110.7,0,0,0-160.11,44.38,5.94,5.94,0,0,0,3,8.05l11.41,4.94a5.86,5.86,0,0,0,7.61-2.82A81.89,81.89,0,0,1,791.81,1302.39Z"/><path class="cls-2" d="M739.44,1268.31c44.85-68.94,137.42-88.53,206.36-43.67l.06,0a5.85,5.85,0,0,0,8.55-2.42l5.2-11.38-2.17-7.51c-79.94-50.84-186.48-27.85-238.28,51.75a171.79,171.79,0,0,0-11.83,21.42,5.85,5.85,0,0,0,3,7.8l11.39,4.93a5.86,5.86,0,0,0,7.64-2.84A146,146,0,0,1,739.44,1268.31Z"/><path class="cls-2" d="M687.06,1234.23c62-95.27,188.2-124.07,285.1-66.7a5.91,5.91,0,0,0,8.44-2.57l5.15-11.29a5.9,5.9,0,0,0-2.34-7.55C875.58,1083,735.64,1115.23,666.79,1221A234.55,234.55,0,0,0,650,1251.72a5.89,5.89,0,0,0,3.07,7.82l11.37,4.92a5.89,5.89,0,0,0,7.7-3A212.32,212.32,0,0,1,687.06,1234.23Z"/><path class="cls-4" d="M2960.3,1843.35l-189.12-9.84a25.69,25.69,0,0,0-27.33,26.8l4.89,173.92c.4,14.21,12.7,25.07,27.29,24.35l179.59-8.87c12.17-.6,22.22-11.39,22.58-24.19l4.38-155.79C2983,1855.86,2973.06,1844,2960.3,1843.35Z"/><path class="cls-2" d="M2935.52,1863.19h-133.7c-12.38,0-28.1,9-28.1,21.78v74.36c0,12.26,15.85,22.4,28.1,22.4h92c3.17,0,5.25,5.88,5.25,9v11c0,4.52,4.33,6.2,6.56,6.94a8.7,8.7,0,0,0,5,1.87,6.33,6.33,0,0,0,4.82-2.19l20-23.35c12.49-.27,17.78-13.45,17.78-25.71V1885C2953.23,1872.8,2947.69,1863.19,2935.52,1863.19Zm4.16,96.14c0,5.75.48,12.24-4.16,12.24h-5l-24.72,23.49v-16.15c0-3.17,3-7.34-.15-7.34H2801.82c-5.69,0-17.94-6.55-17.94-12.24V1888c0-8.31,12.19-7.91,17.94-7.91h133.7c5.66,0,4.16-.81,4.16,4.85Z"/><path class="cls-2" d="M2926.14,1900.44a3.39,3.39,0,0,1-3.39,3.39H2800.82a3.39,3.39,0,0,1-3.39-3.39h0a3.38,3.38,0,0,1,3.39-3.38h121.93a3.38,3.38,0,0,1,3.39,3.38Z"/><path class="cls-2" d="M2926.14,1920.77a3.38,3.38,0,0,1-3.39,3.38H2800.82a3.38,3.38,0,0,1-3.39-3.38h0a3.39,3.39,0,0,1,3.39-3.39h121.93a3.39,3.39,0,0,1,3.39,3.39Z"/><path class="cls-2" d="M2926.14,1951.25a3.39,3.39,0,0,1-3.39,3.39H2800.82a3.39,3.39,0,0,1-3.39-3.39h0a3.39,3.39,0,0,1,3.39-3.39h121.93a3.39,3.39,0,0,1,3.39,3.39Z"/><path class="cls-14" d="M2918.61,2920.14c13.7,2.73,91.74,49.17,91.74-3.93V2856.9S2914.68,2919.36,2918.61,2920.14Z"/><path class="cls-15" d="M2967.46,2820.46s-34.3-57.88-38.59-114.69,2.68-81.67-3.75-98.18-37.7-79.21-39.13-60.36,10,38.49,10,38.49-19.83,15.78-16.44,34,10.36,20,10.36,20,1.08,39.31,2.86,39.31-31.44,197.22,5.72,201.5S2965.67,2911.21,2967.46,2820.46Z"/><path class="cls-16" d="M2869.44,2605.69c-.35-2.61-24.37-54.86-20.07-60.8s8.64-11.24,15.39,6.37,14.79,65.55,12.2,65.83S2870.68,2615.06,2869.44,2605.69Z"/><path class="cls-17" d="M2644.66,3175s-18.14-15.05-42.25-12.86c-16.81,2.94-36.53,17.81-49.24,28.84a6.74,6.74,0,0,0-1.87,7.67,7.1,7.1,0,0,0,6.76,4.37c31.52-.65,93.2-2.53,93.2-7.17C2651.26,3189.58,2644.66,3175,2644.66,3175Z"/><path class="cls-18" d="M2657.15,3148.45l-14.47,27.33s-32.69,2.68-31.62-10.18,9.11-28.41,9.11-28.41Z"/><path class="cls-19" d="M3026.64,3167.06c-22.67-123.78-39.18-203.26-39.18-203.26s-251.26-162.1-277-122.44-99.44,310.3-99.44,310.3l49.15,13.4s94-127.28,102.54-235.94c24.19,79.25,46.74,268.64,232.86,274.07a30.66,30.66,0,0,0,31-36.13Z"/><polygon class="cls-20" points="2483.51 3163.99 2453.5 3192.39 2429.92 3168.81 2461 3132.91 2483.51 3163.99"/><path class="cls-21" d="M3092.74,2588.41l58.75,75.54a10.73,10.73,0,0,1,1.07,11.81c-7.61,13.07-29.7,42-76.42,42.39-5.34,0-10.44-3.35-13.08-8.54l-36.51-71.94Z"/><path class="cls-22" d="M2952.82,2490s-15,86.22,8.48,121.83,91.32,36.49,132.28-18.9l-7.1-119.69Z"/><path class="cls-23" d="M3059.2,2547.32a4.29,4.29,0,0,1-4.25-5c1.33-8,3.35-24,.9-36.08,0,0,6.52-9.84-29.12-3.33s-89,15.74-111.21-7.25c-21.66-22.4-25.46-101.1,39.49-65.72a4.29,4.29,0,0,0,6.24-2.7c2.88-11.79,12.61-37.94,42.22-37.75,27.7.17,37.78,16,41.23,24.65a4.27,4.27,0,0,0,6.39,2c10.7-7.39,37.92-21.69,63.71,1.32,21.25,19,20.16,35.46,16.67,44.84A4.28,4.28,0,0,0,3136,2468c8.72-1,21.52,1.1,28.46,19.54,9.61,25.49-19.18,35.58-27.61,37.94a4.28,4.28,0,0,0-2.94,2.77c-3.47,10.51-18.35,57.51-49.78,76-2.72,1.6-7.84-1.83-8.1-5l-4.05-48a4.32,4.32,0,0,0-4.29-4Z"/><path class="cls-24" d="M3054.22,2552.6s25.11-40.6,36.92-20.95S3072,2576.1,3051.22,2576Z"/><path class="cls-25" d="M2997.28,2795.81s-114.5,48.23-135.94,23.58-9.65-162.9-9.65-162.9l-48.23-12.89s-59.31,244,41.45,280.47c73.14,26.46,212.58-59.66,212.58-59.66Z"/><path class="cls-26" d="M3104.94,2629c-18.46,4.05-38.69,21.69-54.52,38.6a135.85,135.85,0,0,0-34.69,69.6c-.15.84-.3,1.69-.44,2.55-39.85,43.67-74.95,71.95-98.56,82.4,41.45,58.86,63.87,81.22,63.87,81.22s4.78-1,12.8-3.09c-7.79,70.24-12,124.62-12,124.62s81,80.36,179,103.22c89.29-65.74,103-253.8,103-253.8C3270.33,2651.22,3167.31,2615.24,3104.94,2629Z"/><path class="cls-4" d="M3160.39,3128.08s-40.2,119.51-238.58,52.52c-96.2-32.48-230.89-220.8-230.89-220.8s-33.23,91.11-206.87,213.3l-38.59-34.66s175.79-303,265.82-271.53S3187.9,3050.55,3160.39,3128.08Z"/><path class="cls-27" d="M2468.14,3178.54c-7.34.09-38.22-13.48-38.22-13.48l-28.76,7.68c-25.07-3.85-46.6,4.68-61.11,13.36a8.28,8.28,0,0,0,4.12,15.37c28.38.47,75,.94,98.61-.47C2478.15,3198.88,2483.51,3199.9,2468.14,3178.54Z"/><path class="cls-28" d="M3033,2889.74a1.27,1.27,0,0,1-.3-2.5,278,278,0,0,0,63.41-26.38c30.08-17.19,68.3-47.55,79.58-94.57a1.27,1.27,0,0,1,2.47.6c-11.51,47.91-50.31,78.76-80.84,96.21a280.41,280.41,0,0,1-64,26.6A1,1,0,0,1,3033,2889.74Z"/><path class="cls-29" d="M2778,2531.9a7.66,7.66,0,0,1,5.7-10.32l55.88-10.66a4.35,4.35,0,0,1,5,3l43,138.55a2.34,2.34,0,0,1-1.57,2.94l-46.71,14a7.69,7.69,0,0,1-9.35-4.56Z"/><path class="cls-4" d="M2795.6,2533.27a4.34,4.34,0,0,1,3.35-5.79l37.09-6.26a4.33,4.33,0,0,1,4.87,3l36.5,118a2.35,2.35,0,0,1-.21,1.85,2.32,2.32,0,0,1-1.49,1.12l-33.23,8a2.36,2.36,0,0,1-2.75-1.46Z"/><path class="cls-30" d="M2813.49,2521.84c.09.44.84.65,1.66.47l12.2-2.57c.82-.17,1.42-.67,1.33-1.1l-.09-.42c-.09-.44-.84-.65-1.66-.47l-12.2,2.57c-.82.17-1.42.67-1.33,1.1Z"/><path class="cls-31" d="M2802.84,2646.26c-.72-6.14-21.35-45.26-13.31-60.27s11.25-40.73,19-33.49-1.87,32.42,1.61,39.92,16.86,26.57,18.61,41.42,11.67,36-9.23,39S2802.84,2646.26,2802.84,2646.26Z"/><path class="cls-32" d="M3023.73,2734.91a1.27,1.27,0,0,1-1.05-2c2.37-3.45,58.3-84.29,90.51-70.65a1.27,1.27,0,1,1-1,2.33c-30.32-12.86-86.86,68.93-87.43,69.76A1.25,1.25,0,0,1,3023.73,2734.91Z"/><path class="cls-33" d="M2898.05,2659.34a1.28,1.28,0,0,1-1-.52c-9.78-13.57-3.6-29-1-35.65.33-.82.7-1.73.82-2.16-1.2-2.68-5.87-16.4-4.45-25,.33-2,1.36-2.58,2.16-2.74,4.4-.86,14,13.67,17.86,20a1.27,1.27,0,0,1-2.16,1.34c-6.35-10.26-13.25-18.81-15.17-18.81h0a5.64,5.64,0,0,0-.16.66c-1.37,8.19,3.6,22.38,4.31,23.64.45.79.13,1.6-.83,4-2.48,6.22-8.3,20.79.67,33.22a1.27,1.27,0,0,1-1,2Zm-1-38h0Z"/><path class="cls-4" d="M2923.32,2490.62a2.26,2.26,0,0,1-2-1.11c-9.93-17-13.07-31.46-9.31-43a26.14,26.14,0,0,1,13.12-15.52,2.25,2.25,0,1,1,1.8,4.12,21.59,21.59,0,0,0-10.67,12.9c-3.29,10.22-.28,23.41,9,39.21a2.25,2.25,0,0,1-1.94,3.38Z"/></g></g></svg>