<svg id="Layer_1" data-name="Layer 1" xmlns="http://www.w3.org/2000/svg" xmlns:xlink="http://www.w3.org/1999/xlink" viewBox="0 0 480.99 314.08"><defs><style>.cls-1{fill:#897fbc;}.cls-2{fill:#bab2d8;}.cls-3{fill:#6e50a1;}.cls-4{fill:#7557a5;}.cls-5{fill:#a096c9;}.cls-6{fill:url(#linear-gradient);}.cls-7{fill:#b3acd5;}.cls-8{fill:#d7d3ea;}.cls-9{fill:url(#linear-gradient-2);}.cls-10{fill:#9488c1;opacity:0.25;}.cls-11{fill:#fac9d8;}.cls-12{fill:url(#linear-gradient-3);}.cls-13{fill:#1a1127;}</style><linearGradient id="linear-gradient" x1="187.79" y1="246.78" x2="187.79" y2="90.55" gradientUnits="userSpaceOnUse"><stop offset="0" stop-color="#d7d3ea"/><stop offset="0.49" stop-color="#e1ddef"/><stop offset="1" stop-color="#f1edf6"/></linearGradient><linearGradient id="linear-gradient-2" x1="65.13" y1="274.17" x2="105.01" y2="205.1" gradientUnits="userSpaceOnUse"><stop offset="0" stop-color="#a59acb"/><stop offset="0.9" stop-color="#c1b4d8"/></linearGradient><linearGradient id="linear-gradient-3" x1="343.9" y1="158.02" x2="343.9" y2="101.61" gradientUnits="userSpaceOnUse"><stop offset="0" stop-color="#b54b9c"/><stop offset="0.3" stop-color="#bf5ca3"/><stop offset="0.66" stop-color="#c669a9"/><stop offset="0.99" stop-color="#c96dab"/></linearGradient></defs><path class="cls-1" d="M434.38,199.58a103.06,103.06,0,0,0-12.86-41.29,113.29,113.29,0,0,0-14.75-20.59c-1-1.08-1.95-2.15-3-3.19-7.18-7.44-15.74-13.39-23.5-20.26a62.25,62.25,0,0,1-8.54-9c-.63-.82-1.26-1.67-1.81-2.54-3.22-5-4.84-10.63-6.62-16.16a116.86,116.86,0,0,0-11.53-24.94,129.48,129.48,0,0,0-39-39.82q-5.3-3.46-10.91-6.4c-32.6-17-72.43-20.06-108-8.6a134.52,134.52,0,0,0-27.72,12.53.49.49,0,0,0-.22.31c-6.55,3.77-12.88,7.84-19.36,11.71a181.51,181.51,0,0,1-28.9,14c-35.54,13.36-78.45,19.73-100.61,52-11,16.06-16,35.5-16.93,54.36C0,155,0,158.18.06,161.42a133.26,133.26,0,0,0,8.48,42.44c12.64,33.75,38.85,63.64,73.76,79.49a100,100,0,0,0,32.18,8.87c12.7,1.13,25.39-.64,38-1.5,3.83-.26,7.61-.38,11.36-.32,1.5,0,3,.05,4.48.12a123.41,123.41,0,0,1,16.41,1.86c2,.37,4.1.79,6.14,1.27,12.27,2.88,24.26,6.77,36.46,9.88,44.81,11.45,93.76,16.71,137.7-.59,18.94-7.46,36.07-19,48.32-34.38a97.54,97.54,0,0,0,13.75-23.3,99.31,99.31,0,0,0,6.69-24.46c.3-2.15.53-4.33.68-6.49A94.05,94.05,0,0,0,434.38,199.58Z"/><path class="cls-2" d="M437.79,95.15c-2.66,34-18.79,66.68-44.58,91.31a154.55,154.55,0,0,1-24.5,19c-.74.47.05,1.53.79,1.06,30.86-19.4,53.63-48.73,63.95-81.59a133.51,133.51,0,0,0,5.72-29.54C439.23,94.59,437.85,94.32,437.79,95.15Z"/><path class="cls-2" d="M438.15,95.89s10.68-5.06,1.82-16.47C429.38,87.68,438.15,95.89,438.15,95.89Z"/><path class="cls-2" d="M436.31,107.65s4-11.79-13-14.36C422.19,107.55,436.31,107.65,436.31,107.65Z"/><path class="cls-2" d="M436.72,108.32s11.78,6.06,18.1-8.58C439.79,95.73,436.72,108.32,436.72,108.32Z"/><path class="cls-2" d="M432,127.68s11.71,8.1,20.84-6.81C437.31,114.55,432,127.68,432,127.68Z"/><path class="cls-2" d="M431.65,127.85s4-12.91-14.56-15.23C416.32,128.13,431.65,127.85,431.65,127.85Z"/><path class="cls-2" d="M422.3,148.68s6.42-13.85-13.85-18.8C405.2,147,422.3,148.68,422.3,148.68Z"/><path class="cls-2" d="M409.62,169s7.25-15.66-15.67-21.26C390.29,167.16,409.62,169,409.62,169Z"/><path class="cls-2" d="M391.81,188.81s10.85-16.34-13.64-26C370.65,183.87,391.81,188.81,391.81,188.81Z"/><path class="cls-2" d="M391.41,188.09s7.86,17.7,30.95,5.53C408.4,175.55,391.41,188.09,391.41,188.09Z"/><path class="cls-2" d="M409.24,168.38s9.54,14.61,28.05,1.06C422.34,155.25,409.24,168.38,409.24,168.38Z"/><path class="cls-2" d="M422.49,148.63s11.12,11.1,24.5-3.66C431.26,135.12,422.49,148.63,422.49,148.63Z"/><path class="cls-2" d="M149.49,21.27A140.11,140.11,0,0,0,152,122.63a141.66,141.66,0,0,0,14.54,26.54c.49.71-.69,1.42-1.18.71a142.87,142.87,0,0,1-24.44-99.19A136.9,136.9,0,0,1,148.11,21C148.4,20.24,149.78,20.48,149.49,21.27Z"/><path class="cls-2" d="M148.85,21.84s-7.71-8.55,5.29-16C160.41,17.3,148.85,21.84,148.85,21.84Z"/><path class="cls-2" d="M145.57,33.5s1.27-12.47,18-8.79C158.63,38.46,145.57,33.5,145.57,33.5Z"/><path class="cls-2" d="M144.9,34s-13.43,1.45-13.06-14.5C147.4,21.11,144.9,34,144.9,34Z"/><path class="cls-2" d="M141.05,53.77s-14.22,3.38-16.33-13.83C141.72,39.59,141.05,53.77,141.05,53.77Z"/><path class="cls-2" d="M141.32,54.06s1.79-13.5,19.86-9C155.33,59.81,141.32,54.06,141.32,54.06Z"/><path class="cls-2" d="M141.11,76.88s-.05-15.25,20.74-12.62C157.58,81.46,141.11,76.88,141.11,76.88Z"/><path class="cls-2" d="M144.2,100.44s-.06-17.24,23.45-14.27C162.82,105.62,144.2,100.44,144.2,100.44Z"/><path class="cls-2" d="M152.25,125.33s-3.09-19.16,23.57-19.4C173.86,128.28,152.25,125.33,152.25,125.33Z"/><path class="cls-2" d="M152.92,124.79s-14.75,13.75-30.89-5.9C142.56,107,152.92,124.79,152.92,124.79Z"/><path class="cls-2" d="M144.82,100s-15,10.25-26.31-9C138.3,83,144.82,100,144.82,100Z"/><path class="cls-2" d="M141,76.77s-15,6.4-21-12.19C138.59,61,141,76.77,141,76.77Z"/><path class="cls-3" d="M434.51,214.31a98.5,98.5,0,0,1-7.37,30.95H169.53c-1.37-12.57.29-25.85.66-38.19a81.7,81.7,0,0,0-4.3-29.31c-.86-2.57-1.87-5.15-3-7.72-4.65-10.58-9.5-20.85-11.59-32.19-3.8-20.56-.46-42.71,11.95-60.38A77,77,0,0,1,212,46.18c13.39-2.38,29.86,1.25,44.62.54C265,44.86,270,40,275.62,34a79.43,79.43,0,0,1,38.57-22.73C327.35,8,342,8.57,353.11,16.57c10.28,7.43,15.79,19,17.33,30.81A77.76,77.76,0,0,1,369.9,69c-1.25,8.45-3.51,17.08-2,25.63a33.84,33.84,0,0,0,3.87,10.63c4.88,8.78,12.66,13.41,21,19.3,9.23,6.51,23.5,24.18,28.73,33.69C431,175.55,435.88,194.94,434.51,214.31Z"/><path class="cls-4" d="M166.45,195.3c4.27,7.91,6.36,16.74,4.21,25.14-2.25,8.79-7.2,15.65-13,24.82H55c-2.83-30.1-17.74-47.66-28.51-64.32-6.36-9.83-11.29-19.36-11.42-31-.15-12.85,4.38-23.26,13.66-26.81,20.74-7.93,27.34,11.47,41.43,20.12a12.21,12.21,0,0,0,3.71,1.55,6.53,6.53,0,0,0,7.71-4.21s0,0,0,0c1.55-5.46-.23-11.2-2.87-16.11-4.7-8.75-12-16.1-16.79-24.83-6.33-11.48-8.43-26.29-1.17-37.49A29.93,29.93,0,0,1,75.29,50.06c16.71-6.17,34.58,4.85,37.83,20.47,2,9.58-.19,19.43,1.67,29a17.45,17.45,0,0,0,4.56,9.3c14,10.59,16.85,0,31.3,1.24,10.33.91,19.54,7.74,21.92,16.45,3,10.84-1.93,21.33-8.86,30.64-3.66,4.9-6.9,9.62-7.28,15.76a21.54,21.54,0,0,0,1,8.05,18.48,18.48,0,0,0,1,2.56C161.08,187.45,164.23,191.21,166.45,195.3Z"/><path class="cls-5" d="M267.72,23.76c-.74-9.13-9.34-12.44-17.89-12.69-8.09-1.8-17.23,1.55-20.31,9.27-3.88,9.72,3.67,18.81,14.49,19.22C253.05,39.89,268.53,33.82,267.72,23.76Z"/><path class="cls-5" d="M411.17,15.93a35,35,0,0,0-19.4-11.45,21.2,21.2,0,0,0-9.61.2,10.72,10.72,0,0,0-6.86,3.39c-4.38,4.78-3.06,11.74-.73,17.05,1.61,3.64,3.72,7.08,5.08,10.82a42.71,42.71,0,0,1,2.28,13.83c.13,5.7,1.88,10.41,7.7,13.07,11.65,5.33,26.13,1,31.13-10.18C426.18,40.51,419.64,25.52,411.17,15.93Z"/><path class="cls-6" d="M258.6,246.78c.67-3,1.15-6,1.57-9,1.11-7.72,1.28-15.67-.69-23.28-2.2-8.53-7.68-14.48-12.82-21.58-6.84-9.43-4.73-20-3.27-30.61,1.44-10.38,3-20.75,4.29-31.14,1.77-14.06.88-34.05-16.62-39.55s-35.26,10.24-44.92,21.68c-5.5,6.52-9.48,13.89-14.21,20.87-5.55,8.2-12.16,14.15-21.7,18.24-9,3.87-18.46,6.86-25,14.15a42.16,42.16,0,0,0-10.07,22.61c-2.68,19.36,5.5,39.14,12.16,57.57Z"/><path class="cls-7" d="M227.32,154.1a75.54,75.54,0,0,1-25.15,7.58,303.73,303.73,0,0,1,13.06-34.12c.33-.77-1-1.1-1.36-.35-12,26.68-20.59,55.06-23.28,83.9-16.23-8.22-28.56-21.19-40.52-34a.68.68,0,0,0-1,.92c4.23,4.53,8.52,9.07,13,13.42a87.75,87.75,0,0,1-30.83,3c-.9-.07-.9,1.23,0,1.29a89.54,89.54,0,0,0,31.6-3.14.59.59,0,0,0,.27-.15c8.13,7.79,16.95,14.91,27.36,20.07a195.88,195.88,0,0,0,0,34.25h1.25c-.15-2.57-.25-5.1-.36-7.52a205.94,205.94,0,0,1,1.77-37.71A246.42,246.42,0,0,1,201.74,163,77.37,77.37,0,0,0,228,155.21C228.82,154.81,228.11,153.7,227.32,154.1Z"/><path class="cls-7" d="M217.79,119.24c-.57,1.25-1.13,2.5-1.69,3.74-.35.77,1,1.1,1.34.35.57-1.25,1.13-2.5,1.7-3.74C219.48,118.82,218.13,118.48,217.79,119.24Z"/><path class="cls-8" d="M403,217.38c-28.37,2.08-53.34,17-80.75,22.86-29.22,6.25-59.36,2.13-89,2.2-14.24,0-28.59,1-42.34,4.59-10.48,2.73-22.1,7.4-26.91,17.15-2.84,5.75-2.64,12.24-1.67,18.39.4,2.61.91,5.22,1.48,7.83,1.5,0,3,.05,4.48.12a123.41,123.41,0,0,1,16.41,1.86c2,.37,4.1.79,6.14,1.27,12.27,2.88,24.26,6.77,36.46,9.88,44.81,11.45,93.76,16.71,137.7-.59,18.94-7.46,36.07-19,48.32-34.38a97.54,97.54,0,0,0,13.75-23.3,99.31,99.31,0,0,0,6.69-24.46A81.31,81.31,0,0,0,403,217.38Z"/><path class="cls-9" d="M173.59,254.63c-10.2-16.1-27.14-28.21-46.33-33.76-10.08-2.92-20.34-3.3-30.79-3.85-11.59-.63-23.16-2.35-31.81-10.12-14-12.53-17.66-32.15-34.87-42C21,159.81,9.9,157.79.07,161.42a133,133,0,0,0,8.47,42.44c12.64,33.75,38.85,63.64,73.76,79.49a99.82,99.82,0,0,0,32.19,8.86c12.69,1.14,25.39-.62,38-1.5a128.67,128.67,0,0,1,32.25,1.68A72.31,72.31,0,0,0,173.59,254.63Z"/><path class="cls-10" d="M348.28,254.24c-70.09,0-126.91,6-126.91,13.49a1.68,1.68,0,0,0,.29.9c-15.79,2-26.12,5.24-26.12,8.93,0,6,27.44,10.9,61.28,10.9,27.59,0,50.92-3.25,58.6-7.71,10.48.3,21.49.46,32.86.46,70.09,0,126.9-6,126.9-13.48S418.37,254.24,348.28,254.24Z"/><path class="cls-11" d="M475,100.31a149.8,149.8,0,0,1-15.41,1.26,48,48,0,0,0-6.35.24c-2.52.35-4.73,1.63-7.27,1.8-7.69-.29-15.4-.37-23.09-.2-5.8.14-12.9-.18-17.78,3.14L378.3,103.1c-6.73-.87-13.64-1.89-20,.09a22,22,0,0,0-2.3.86l-.07,0a6.06,6.06,0,0,1-3.3-1.16c-2.43-1.88-2.61-5.68-2.49-9,1.22.7,2.47,1.37,3.75,2s3.14,1.56,4.51.56,1.71-3.74,2.06-5.26a34.39,34.39,0,0,0,.79-5.54c1.56-.81,2.84-1.71,1.72-3.43a16,16,0,0,1-2-2.89,11.44,11.44,0,0,1-.62-2.84l-.24-1.86c0-.35.06-.69.06-1,0-6.88-6-12.47-13.48-12.47s-13.47,5.59-13.47,12.47c0,.41,0,.81.06,1.22a.37.37,0,0,0-.25.47,43.08,43.08,0,0,1,1.87,13,41,41,0,0,1-.67,6.89c-.34,1.86-.59,4.92-2.32,6.2-.14.1-.29.18-.43.27a10.45,10.45,0,0,1-5,1.25l-.24,0c-5.33-.8-10.95,0-16.45.71Q296.38,105.26,283,107c-4.88-3.32-12-3-17.78-3.14q-11.54-.25-23.09.19c-2.54-.16-4.75-1.44-7.27-1.8a49.8,49.8,0,0,0-6.35-.24,149.78,149.78,0,0,1-15.41-1.25c-1.17-.14-8.16-.63-5.37,2.39.91,1,3.05,1.12,4.31,1.43l6.64,1.63a2.82,2.82,0,0,0,2.07,2,8.66,8.66,0,0,0,3,.18,7.82,7.82,0,0,1,4.56,1.33c3.71,2.29,7.17,1.87,10.9,0a153.36,153.36,0,0,0,21.8,6.09q5.34,1.06,10.77,1.75a38.16,38.16,0,0,0,8.92.36,130.81,130.81,0,0,0,19.65,2.26c2.65.09,5.31.06,8,.07,2.83.66,5.48,1.1,7.88,2.78a24.75,24.75,0,0,1,2.6,4.76c1.55,3.63,2.52,7.55,4.17,11.13,2.43,5.3,4.76,10.09,7.52,14.9a.87.87,0,0,1-.07.17c-.11.3-.22.59-.35.88-1,2.3-2.2,4.49-3.3,6.79a59.74,59.74,0,0,0-3.84,10.41l-.21.75-2.83,3.72c-8.33,6.22-15.83,13.89-23.09,20.88q-12,11.52-22.94,23.87c-8.68.13-17.26,7.32-23.42,12.24-9.91,7.9-18.31,17.25-27.71,25.64a.65.65,0,0,0-.08.09l-.05,0a7.89,7.89,0,0,0-3,2.92c-2,3.17-3.28,6.12-6.12,8.85-3.36,3.22-4.85,6.2,0,9.16,3.52,2.18,7.94.53,10.9-1.7a6.63,6.63,0,0,0,2.82-4.31c.51-2.57.4-4.84.79-7.13l.73-.39c10-5.5,20.3-10.34,30.38-15.66,4.82-2.55,9.8-5.29,13.91-8.78,1.89-1.61,5.38-4.4,6.44-6.32.2-.12.4-.24.61-.35,3.69-2,7.91-2.86,11.69-4.68,3.95-1.89,5.4-3.54,9.07-5.85,7.64-4.81,15.43-9.47,23.41-13.8A83.28,83.28,0,0,1,348,202.46c9.68,4.48,18.76,4.91,28.1,4.48,11.12-.52,25.68-2.5,37.78-6.19-2,8.52-1.1,18.06,1.63,26.49,2.9,9,6.33,17.55,8.16,26.78,0,.15-.09.29-.13.44-1.17,3.8-2.59,8.31-.76,11.6s5.95,3.89,9.44,3.54S439,268,442.6,268.5c2.91.43,5.69,1.32,8.63,1.67,4.11.5,8.59,1.07,11.37-2.32a1,1,0,0,0-.45-1.64,1.34,1.34,0,0,0-.63-.43c-5.23-1.77-11.09-3.13-15.7-6.07-3.44-2.2-7.09-4.22-10.49-6.47v0c-2.75-17,.11-34.21-1.28-51.3a23.47,23.47,0,0,0-1.9-11.44c-2.74-5.79-11.11-7.54-17-9.7a77,77,0,0,0-22.92-5.17c-4.19-.22-8.39-.14-12.59-.07-2.62,0-5.66.35-8.55.24a74.79,74.79,0,0,1-2.47-7.07c-1.18-4.18-3.46-9-4.87-13.07v0c0-.07,0-.14.05-.21a72.1,72.1,0,0,0,1.94-19.49,25.56,25.56,0,0,0,3.18-7.73c.35-1.65-.46-4.38-.94-6-.1-.34-.23-.68-.35-1h0c3-1.16,6.51-1.28,9.69-1.35,3.47-.08,6.93,0,10.39-.11a129.25,129.25,0,0,0,19.64-2.26,37.79,37.79,0,0,0,8.94-.36q5.42-.69,10.76-1.75a152.91,152.91,0,0,0,21.81-6.09c3.72,1.88,7.18,2.3,10.9,0a7.78,7.78,0,0,1,4.55-1.32,8.66,8.66,0,0,0,3-.19,2.8,2.8,0,0,0,2.07-2c2.21-.53,4.43-1.08,6.64-1.63,1.26-.3,3.4-.44,4.31-1.43C483.12,99.68,476.13,100.18,475,100.31Z"/><path class="cls-12" d="M369,128.18a25.56,25.56,0,0,1-3.18,7.73,72.15,72.15,0,0,1-2,19.7v0A50.13,50.13,0,0,1,347.15,158,59.74,59.74,0,0,1,330,154.85q.23-.53.42-1c-2.76-4.81-5.09-9.6-7.52-14.9-1.65-3.58-2.62-7.5-4.17-11.13,3.49-2.41,5.82-6.49,7-10.45a29.45,29.45,0,0,0,.42-14.5l.24,0a10.45,10.45,0,0,0,5-1.25c.93,4.73,3.41,9.25,8.81,10.48,3.71.84,7.71.77,10.33-2.09,1.7-1.83,2.16-4.58,2-7.13a6.06,6.06,0,0,0,3.3,1.16l.07,0a22,22,0,0,1,2.3-.86c.47,7.06,3.32,13.76,9.36,18,.12.35.25.69.35,1C368.49,123.8,369.3,126.53,369,128.18Z"/><path class="cls-13" d="M434.05,201.91a23.47,23.47,0,0,0-1.9-11.44c-2.74-5.79-11.11-7.54-17-9.7a77,77,0,0,0-22.92-5.17c-4.19-.22-8.39-.14-12.59-.07-2.62,0-5.66.35-8.55.24a74.79,74.79,0,0,1-2.47-7.07c-1.18-4.18-3.46-9-4.87-13.07v0c0-.07,0-.14.05-.21a48.52,48.52,0,0,1-33.38-1.6c-.12.3-.29.76-.42,1-1,2.3-2.2,4.49-3.3,6.79a59.74,59.74,0,0,0-3.84,10.41l-.21.75-2.83,3.72c-8.33,6.22-15.83,13.89-23.09,20.88q-12,11.52-22.94,23.87c-8.68.13-17.26,7.32-23.42,12.24-9.91,7.9-18.31,17.25-27.71,25.64a.65.65,0,0,0-.08.09l-.05,0a17.85,17.85,0,0,0,6.07,7.4c10-5.5,20.3-10.34,30.38-15.66,4.82-2.55,9.8-5.29,13.91-8.78,1.89-1.61,5.38-4.4,6.44-6.32.2-.12.4-.24.61-.35,3.69-2,7.91-2.86,11.69-4.68,3.95-1.89,24.5-15.32,32.48-19.65A83.28,83.28,0,0,1,348,202.46c9.68,4.48,18.76,4.91,28.1,4.48,11.12-.52,25.68-2.5,37.78-6.19-2,8.52-1.1,18.06,1.63,26.49,2.9,9,6.33,17.55,8.16,26.78,0,.15-.09.29-.13.44a18.06,18.06,0,0,0,11.83-1.25C432.58,236.22,435.44,219,434.05,201.91Z"/><path class="cls-13" d="M351.11,57.89c-3.53.6-3.45,3.37-8.41,2.78-.27,0-.56,0-.84,0a12.09,12.09,0,0,0-7.11,1.09,33.13,33.13,0,0,0-3.95,2.53c-.74.52-2.13,2-3.57,3a4.14,4.14,0,0,1-4.18.25c-5.21-2.64-10.8-4.86-16.85-3.66A18.16,18.16,0,0,0,297.67,68a16.29,16.29,0,0,0-4.42,7.62c-.34,1.42-.31,3-1,4.34-1.15,2.08-3.51,2-5.67,2.25a27.31,27.31,0,0,0-9.3,2.88,15.65,15.65,0,0,0-8.11,10,.35.35,0,0,0-.07.15,18.93,18.93,0,0,0,.1,8c0,.2.1.41.15.63,4.8.11,9.92.5,13.69,3.07l14.68-1.89a73.39,73.39,0,0,1,21.89.67,10.89,10.89,0,0,0,3.37.12,9.53,9.53,0,0,0,4.83-2,6.88,6.88,0,0,1,4.11-1.86,25.92,25.92,0,0,1,3.63.22c3.65.28,7-1.06,8.55-4.3a7.77,7.77,0,0,0,.57-4.75c-.46-2.52-3.33-4.92-2.71-7.49a.59.59,0,0,0-.49-.63c-2.72.2-4.68-2.65-4.53-4.93.23-3.25,4.9-4.83,6.6-1.63a.38.38,0,0,0,.2.18.46.46,0,0,0,.34.14,5.84,5.84,0,0,0,4.34-1.73c.49-.54.7-1.24,1.15-1.79,1.18-1.44,2.48-1.51,4.16-1.8,3.06-.53,6.38-.93,8.11-5.06C363.17,65.17,361.85,56.05,351.11,57.89Z"/><path class="cls-13" d="M360.76,89.66c-.08.49-.19,1-.3,1.47-.35,1.52-.61,4.21-2.06,5.26s-3.21,0-4.51-.56-2.53-1.28-3.75-2c-.12,3.34.06,7.14,2.49,9a6.06,6.06,0,0,0,3.3,1.16l.07,0a22,22,0,0,1,2.3-.86,31,31,0,0,1,11.42-1C370,96.3,365.82,92.53,360.76,89.66Z"/><path class="cls-13" d="M367.66,121.19c.12.35.25.69.35,1,.48,1.58,1.29,4.31.94,6a25.56,25.56,0,0,1-3.18,7.73,71.53,71.53,0,0,1-.22,9,18.84,18.84,0,0,0,7.93-6.3c4-5.56,4.16-12.47,2.06-18.68a24.64,24.64,0,0,0-7.87,1.3Z"/><path class="cls-13" d="M318.76,127.77a24.75,24.75,0,0,0-2.6-4.76c-2.4-1.68-5.05-2.12-7.88-2.78-2.66,0-5.32,0-8-.07a130.81,130.81,0,0,1-19.65-2.26,25.94,25.94,0,0,1-4.58.07,18.73,18.73,0,0,0,6.62,20,23.74,23.74,0,0,0,12.82,4.7,29,29,0,0,1,9.37,2.11c2.67,1.17,5.22,2.54,7.95,3.62,4.72,1.86,10.16,3.66,15.38,2.9l.79-.13c-2.15-3.95-4.09-8-6.08-12.3C321.28,135.32,320.31,131.4,318.76,127.77Z"/></svg>